<svg xmlns="http://www.w3.org/2000/svg">
<defs>
<font id="DKLemonYellowSun" horiz-adv-x="381" >
  <font-face 
    font-family="DK Lemon Yellow Sun"
    font-weight="400"
    font-stretch="normal"
    units-per-em="1000"
    panose-1="2 0 0 0 0 0 0 0 0 0"
    ascent="800"
    descent="-200"
    x-height="747"
    cap-height="758"
    bbox="-55 -188 892.945 1014"
    underline-thickness="50"
    underline-position="-100"
    unicode-range="U+0020-20AC"
  />
<missing-glyph horiz-adv-x="944" 
d="M420 857c6 30 41 31 50 2c-1 -51 -7 -103 -8 -161c12 -1 23 -3 45 -8c21 15 51 93 55 117c6 31 48 29 49 -6c-7 -38 -22 -87 -48 -122c25 -7 48 -16 68 -29c41 19 99 49 112 93c16 22 47 18 48 -14c-17 -51 -68 -88 -117 -114c13 -14 25 -31 37 -51l6 -11
c26 22 92 79 132 79c29 0 35 -32 11 -48c-45 -12 -88 -48 -124 -79c7 -23 10 -47 12 -73c36 1 72 11 108 16h11c32 0 36 -43 3 -49c-40 -6 -83 -15 -124 -19c-2 -25 -5 -51 -11 -76c43 -3 92 -10 131 -28c23 -17 14 -46 -13 -46h-5c-37 17 -87 23 -130 25
c-9 -21 -21 -40 -35 -52c-10 -8 -20 -13 -30 -17c0 -1 0 -2 1 -3c10 -40 72 -73 86 -126c-2 -30 -36 -38 -49 -10c-13 49 -70 75 -86 125c-28 -7 -60 -8 -92 -4c18 -40 11 -88 9 -129c-2 -35 -46 -37 -50 -2c7 45 5 98 -13 139c-20 5 -40 10 -57 16l-14 4
c-7 -48 -27 -94 -31 -143c-10 -29 -45 -24 -49 6c4 54 29 104 34 158c-20 10 -39 23 -58 37c-35 -17 -43 -69 -80 -88c-2 0 -4 -1 -6 -1c-25 0 -36 28 -16 46c31 14 40 55 65 78l-17 18c-9 11 -15 28 -20 48c-32 -6 -61 -29 -96 -32c-30 4 -35 39 -6 49c35 4 63 25 96 32
c-2 30 -1 62 2 89c-44 12 -85 10 -130 10c-35 4 -33 48 2 50h10c44 0 86 0 128 -11l3 8c9 19 20 36 34 52c-22 20 -67 36 -89 51c-21 22 -3 53 26 43c30 -22 72 -35 100 -60c8 6 23 15 39 23c-28 33 -62 78 -75 90c-24 25 5 60 32 38c33 -32 66 -67 92 -106c11 4 23 8 35 11
c-2 54 7 110 7 165zM552 633c-34 10 -89 18 -130 10c-24 -3 -83 -30 -104 -47c-53 -45 -61 -86 -62 -151s-13 -95 52 -149c31 -25 74 -45 111 -57c162 -54 315 -2 278 200c-7 85 -57 172 -145 194zM312 377c-24 25 5 60 32 38c32 -29 88 -63 134 -63c4 0 8 1 11 1

<glyph glyph-name=".notdef" horiz-adv-x="944" 
d="M420 857c6 30 41 31 50 2c-1 -51 -7 -103 -8 -161c12 -1 23 -3 45 -8c21 15 51 93 55 117c6 31 48 29 49 -6c-7 -38 -22 -87 -48 -122c25 -7 48 -16 68 -29c41 19 99 49 112 93c16 22 47 18 48 -14c-17 -51 -68 -88 -117 -114c13 -14 25 -31 37 -51l6 -11
c26 22 92 79 132 79c29 0 35 -32 11 -48c-45 -12 -88 -48 -124 -79c7 -23 10 -47 12 -73c36 1 72 11 108 16h11c32 0 36 -43 3 -49c-40 -6 -83 -15 -124 -19c-2 -25 -5 -51 -11 -76c43 -3 92 -10 131 -28c23 -17 14 -46 -13 -46h-5c-37 17 -87 23 -130 25
c-9 -21 -21 -40 -35 -52c-10 -8 -20 -13 -30 -17c0 -1 0 -2 1 -3c10 -40 72 -73 86 -126c-2 -30 -36 -38 -49 -10c-13 49 -70 75 -86 125c-28 -7 -60 -8 -92 -4c18 -40 11 -88 9 -129c-2 -35 -46 -37 -50 -2c7 45 5 98 -13 139c-20 5 -40 10 -57 16l-14 4
c-7 -48 -27 -94 -31 -143c-10 -29 -45 -24 -49 6c4 54 29 104 34 158c-20 10 -39 23 -58 37c-35 -17 -43 -69 -80 -88c-2 0 -4 -1 -6 -1c-25 0 -36 28 -16 46c31 14 40 55 65 78l-17 18c-9 11 -15 28 -20 48c-32 -6 -61 -29 -96 -32c-30 4 -35 39 -6 49c35 4 63 25 96 32
c-2 30 -1 62 2 89c-44 12 -85 10 -130 10c-35 4 -33 48 2 50h10c44 0 86 0 128 -11l3 8c9 19 20 36 34 52c-22 20 -67 36 -89 51c-21 22 -3 53 26 43c30 -22 72 -35 100 -60c8 6 23 15 39 23c-28 33 -62 78 -75 90c-24 25 5 60 32 38c33 -32 66 -67 92 -106c11 4 23 8 35 11
c-2 54 7 110 7 165zM552 633c-34 10 -89 18 -130 10c-24 -3 -83 -30 -104 -47c-53 -45 -61 -86 -62 -151s-13 -95 52 -149c31 -25 74 -45 111 -57c162 -54 315 -2 278 200c-7 85 -57 172 -145 194zM312 377c-24 25 5 60 32 38c32 -29 88 -63 134 -63c4 0 8 1 11 1
c26 3 48 18 73 24c20 20 52 2 40 -28c-8 -19 -37 -24 -55 -31c-83 -30 -171 -1 -235 59zM414 527c22 -27 -18 -60 -38 -32c-18 26 16 50 38 32zM580 503c18 -22 -6 -56 -32 -38c-28 20 5 60 32 38z" />
    <glyph glyph-name="space" unicode=" " horiz-adv-x="300" 
 />
    <glyph glyph-name="exclam" unicode="!" horiz-adv-x="205" 
d="M50 789c6 15 10 20 26 20c14 0 31 -2 34 -20c1 -15 6 -86 6 -101c0 -207 22 -326 22 -534c0 -14 0 -31 -19 -31c-32 0 -33 39 -34 63v5c-14 229 -10 370 -35 598zM76 44c0 13 22 30 34 30c27 0 45 -21 45 -49c0 -22 -21 -25 -40 -25c-25 0 -39 16 -39 44z" />
    <glyph glyph-name="quotedbl" unicode="&#x22;" horiz-adv-x="276" 
d="M177 425c-7 115 -12 236 -12 352c0 16 8 23 24 23c9 0 37 -5 37 -19v-338c0 -12 -10 -31 -24 -31c-11 0 -16 3 -25 13zM61 461c-7 101 -11 207 -11 309c0 14 7 20 22 20c9 0 35 -4 35 -17v-296c0 -10 -10 -27 -23 -27c-10 0 -15 3 -23 11z" />
    <glyph glyph-name="dollar" unicode="$" horiz-adv-x="336" 
d="M145 -95c-5 35 -9 72 -11 108c-59 14 -78 95 -78 150c0 17 23 34 39 29c40 -12 2 -100 52 -129h6c56 0 72 77 72 118c0 55 -4 114 -27 166c-47 108 -148 198 -148 322c0 46 23 118 71 141c-4 34 -7 69 -7 103c0 6 7 9 22 9c7 0 32 -2 32 -8v-97c44 -7 102 -40 102 -86
c0 -19 -6 -30 -26 -30c-39 0 -27 60 -82 60c-51 0 -55 -71 -55 -106c0 -101 85 -172 130 -256c41 -77 62 -189 38 -265c-13 -42 -44 -95 -87 -115v-108c0 -4 -9 -11 -21 -11c-10 0 -14 1 -22 5z" />
    <glyph glyph-name="quotesingle" unicode="'" horiz-adv-x="161" 
d="M62 425c-7 115 -12 236 -12 352c0 16 8 23 24 23c9 0 37 -5 37 -19v-338c0 -12 -10 -31 -24 -31c-11 0 -16 3 -25 13z" />
    <glyph glyph-name="parenleft" unicode="(" horiz-adv-x="312" 
d="M50 430c0 114 23 253 100 344c15 17 32 42 56 42c15 0 22 -10 22 -25c0 -11 -72 -97 -84 -129c-34 -87 -42 -168 -42 -260c0 -77 6 -157 36 -229c13 -29 31 -57 53 -82c6 -6 30 -31 35 -35c14 -12 36 -13 36 -36c0 -14 -21 -12 -29 -12c-34 0 -56 24 -77 48
c-89 100 -106 247 -106 374z" />
    <glyph glyph-name="parenright" unicode=")" horiz-adv-x="312" 
d="M262 430c0 -127 -17 -274 -106 -374c-21 -24 -43 -48 -77 -48c-8 0 -29 -2 -29 12c0 23 22 24 36 36c5 4 29 29 35 35c22 25 40 53 53 82c30 72 36 152 36 229c0 92 -8 173 -42 260c-12 32 -84 118 -84 129c0 15 7 25 22 25c24 0 41 -25 56 -42c77 -91 100 -230 100 -344
z" />
    <glyph glyph-name="comma" unicode="," horiz-adv-x="162" 
d="M50 32c0 17 7 25 25 25c21 0 37 -13 37 -34c0 -31 -12 -63 -20 -91c-2 -10 -7 -14 -16 -14c-16 0 -15 11 -16 23c-1 24 -10 63 -10 91z" />
    <glyph glyph-name="hyphen" unicode="-" horiz-adv-x="570" 
d="M50 377c0 11 4 23 17 25c106 -3 213 6 319 6h111c20 0 23 -14 23 -30c0 -25 -35 -16 -52 -16l-316 -5l-74 -12h-3c-17 0 -25 17 -25 32z" />
    <glyph glyph-name="period" unicode="." horiz-adv-x="179" 
d="M50 56c0 13 22 30 34 30c27 0 45 -21 45 -49c0 -22 -21 -25 -40 -25c-25 0 -39 16 -39 44z" />
    <glyph glyph-name="slash" unicode="/" horiz-adv-x="367" 
d="M50 17c0 1 1 10 1 11c76 252 152 507 214 763c1 3 3 27 6 30c0 0 9 1 13 1c23 0 33 -12 33 -35c0 -59 -30 -117 -46 -175c-57 -198 -109 -405 -174 -601c-2 -8 -7 -17 -17 -17c-21 0 -30 5 -30 23z" />
    <glyph glyph-name="zero" unicode="0" horiz-adv-x="417" 
d="M50 475c0 65 2 74 13 134l2 10c14 73 46 192 127 192c127 0 151 -111 162 -218c4 -40 13 -150 13 -157c0 -13 -9 -161 -13 -210c-7 -82 -41 -199 -139 -199c-69 0 -108 74 -124 133c-32 114 -41 198 -41 315zM103 454c0 -58 20 -380 116 -380c47 0 71 122 76 152l6 52
c8 68 7 87 7 152c0 62 -4 106 -14 183c-6 51 -27 152 -98 152c-27 0 -60 -105 -66 -126c-14 -45 -22 -103 -26 -151c0 -1 -1 -25 -1 -34z" />
    <glyph glyph-name="one" unicode="1" horiz-adv-x="168" 
d="M50 26c0 2 1 11 1 11c0 22 6 196 7 217v535c4 15 15 15 26 15c18 0 30 -11 34 -28v-264l-13 -508c-6 -10 -21 -14 -31 -14c-15 0 -24 25 -24 36z" />
    <glyph glyph-name="two" unicode="2" horiz-adv-x="357" 
d="M50 43c5 38 270 679 164 679h-4c-86 -11 -92 -30 -129 -47c-17 -7 -27 1 -27 22c0 44 109 78 146 82c63 6 100 -29 100 -91c0 -184 -114 -366 -166 -567l-7 -28c-1 -1 0 -4 0 -5l139 11h4c38 0 54 -51 11 -56l-206 -25c-24 0 -25 6 -25 25z" />
    <glyph glyph-name="three" unicode="3" horiz-adv-x="365" 
d="M50 69c0 15 13 24 28 24c22 0 33 -22 56 -22c105 0 132 141 120 217c-28 178 -158 175 -158 213c0 3 1 5 2 8c14 33 122 102 122 186c0 40 -40 54 -74 54c-24 0 -51 -8 -55 -8c-14 0 -34 25 -34 38c0 25 43 25 64 25h4c74 0 156 -27 156 -114c0 -65 -56 -143 -113 -182
c60 -37 132 -108 147 -223c1 -10 2 -21 2 -32c0 -105 -64 -235 -182 -235c-31 0 -85 10 -85 51z" />
    <glyph glyph-name="four" unicode="4" horiz-adv-x="419" 
d="M260 11c-13 74 0 143 -14 210c-1 1 -5 6 -6 6c-41 -4 -113 -20 -161 -20c-13 0 -29 20 -29 34c0 3 6 24 6 27c4 17 14 74 15 81c7 67 40 374 46 440c1 5 3 34 17 34c30 0 45 -10 45 -39v-22c-16 -164 -40 -333 -62 -494c3 0 13 -1 14 -1c33 0 77 8 109 14c2 0 4 1 6 1
v142c0 13 16 14 23 14c73 0 17 -116 45 -150c16 -19 55 4 55 -34c0 -22 -37 -30 -53 -33h-2v-210c0 -7 -19 -14 -24 -14c-9 0 -26 3 -30 14z" />
    <glyph glyph-name="five" unicode="5" horiz-adv-x="396" 
d="M98 119c7 27 12 28 21 28c37 0 36 -55 70 -55c79 0 112 168 99 393c-8 141 -90 115 -188 115c-19 0 -37 -4 -42 13v18c0 58 -8 113 -8 170c0 13 3 29 21 29h189c18 0 29 -20 29 -34c0 -16 0 -20 -21 -20h-143c-8 0 -6 -12 -6 -16l3 -106c164 18 207 -41 220 -125
c0 -96 39 -498 -152 -498c-47 0 -92 41 -92 88z" />
    <glyph glyph-name="six" unicode="6" horiz-adv-x="385" 
d="M50 246v17c11 169 26 278 74 440c10 34 25 110 71 110c19 0 25 -8 25 -29c0 -5 -2 -16 -2 -16c-1 -2 -3 -4 -6 -11c-17 -39 -35 -80 -47 -122c0 -1 0 -2 -1 -4c-7 -23 -32 -103 -35 -121c-7 -53 -12 -88 -12 -135v-24c25 19 54 34 85 34c97 0 133 -111 133 -190
c0 -102 -40 -196 -153 -196c-120 0 -132 162 -132 247zM110 212c0 -51 4 -124 48 -159c4 0 20 -1 24 -1c67 0 92 81 92 137c0 41 -10 142 -71 142c-44 0 -93 -74 -93 -119z" />
    <glyph glyph-name="seven" unicode="7" horiz-adv-x="344" 
d="M84 9v9c50 228 97 452 143 684v13c0 5 0 12 -7 14c-50 6 -99 8 -149 14c-12 6 -21 21 -21 33c0 3 5 13 7 14c4 1 26 1 31 1c53 0 103 -8 156 -8c22 0 50 -12 50 -40v-7c-16 -95 -109 -501 -115 -555c-14 -66 -23 -131 -41 -196c-7 -8 -14 -8 -24 -8c-19 0 -30 11 -30 32z
" />
    <glyph glyph-name="eight" unicode="8" horiz-adv-x="371" 
d="M175 1c-89 17 -125 80 -125 168v11c0 15 1 56 1 59c1 25 20 99 55 99c15 0 26 -13 30 -27c0 -4 -2 -7 -3 -11c-13 -42 -24 -73 -24 -117c0 -51 8 -129 73 -129c62 0 79 62 79 115c0 66 -17 145 -53 201c-53 84 -137 172 -137 279c0 65 38 149 113 149
c104 0 123 -71 123 -158c0 -70 -32 -149 -65 -210c52 -96 79 -188 79 -298c0 -81 -71 -131 -146 -131zM129 653c0 -32 41 -165 69 -165c20 0 50 144 50 172c0 35 -8 91 -56 91c-37 0 -63 -69 -63 -98z" />
    <glyph glyph-name="nine" unicode="9" horiz-adv-x="390" 
d="M129 71c0 16 12 23 26 23c28 0 41 -27 68 -27c30 0 40 59 44 83v3c14 81 14 161 14 243c0 26 -1 96 -1 98c0 12 -14 140 -20 185c0 1 -1 3 -1 5c-3 24 -7 68 -35 68c-74 0 -115 -119 -115 -179c0 -36 7 -105 59 -105c4 0 36 7 40 7c1 1 13 1 17 1c19 0 23 -2 23 -21
c0 -37 -63 -41 -86 -39c-88 6 -112 100 -112 170c0 108 68 225 185 225c80 0 87 -117 91 -179v-6c7 -85 14 -168 14 -254c0 -14 -1 -52 -1 -54l-13 -138c-6 -69 -23 -172 -112 -172c-25 0 -85 33 -85 63z" />
    <glyph glyph-name="colon" unicode=":" horiz-adv-x="179" 
d="M50 566c0 13 22 30 34 30c27 0 45 -21 45 -49c0 -22 -21 -25 -40 -25c-25 0 -39 16 -39 44zM50 56c0 13 22 30 34 30c27 0 45 -21 45 -49c0 -22 -21 -25 -40 -25c-25 0 -39 16 -39 44z" />
    <glyph glyph-name="semicolon" unicode=";" horiz-adv-x="179" 
d="M50 566c0 13 22 30 34 30c27 0 45 -21 45 -49c0 -22 -21 -25 -40 -25c-25 0 -39 16 -39 44zM50 32c0 17 7 25 25 25c21 0 37 -13 37 -34c0 -31 -12 -63 -20 -91c-2 -10 -7 -14 -16 -14c-16 0 -15 11 -16 23c-1 24 -10 63 -10 91z" />
    <glyph glyph-name="equal" unicode="=" horiz-adv-x="538" 
d="M52 296c0 12 4 26 18 28c113 -3 162 0 275 0h118c22 0 25 -16 25 -33c0 -28 -37 -18 -56 -18l-271 1h-83c-19 0 -26 6 -26 22zM50 442c0 12 4 26 18 28c113 -3 162 0 275 0h118c22 0 25 -16 25 -33c0 -28 -37 -18 -56 -18l-271 1h-83c-19 0 -26 6 -26 22z" />
    <glyph glyph-name="question" unicode="?" horiz-adv-x="358" 
d="M135 162v105c0 73 -5 150 27 218c28 62 80 118 80 189c0 30 -10 50 -45 50c-67 0 -80 -100 -125 -100c-15 0 -22 14 -22 28c0 70 83 125 142 125c61 0 116 -37 116 -103c0 -118 -113 -196 -113 -314v-198c0 -13 -15 -14 -23 -14c-12 0 -30 2 -37 14zM135 53v17
c9 8 16 7 26 7c36 0 41 -14 41 -48c0 -3 -1 -22 -1 -26c-2 -10 -19 -7 -23 -7c-36 0 -43 22 -43 57z" />
    <glyph glyph-name="at" unicode="@" horiz-adv-x="603" 
d="M51 347c-6 174 53 457 277 457c178 0 225 -245 225 -382c0 -86 -7 -231 -122 -231c-39 0 -72 24 -80 64c-33 -19 -62 -25 -100 -25c-65 0 -98 27 -98 92c0 52 49 127 105 141c39 10 47 4 84 4c0 6 4 31 3 36c-5 34 -26 71 -64 75c-48 6 -62 -69 -98 -69
c-18 0 -24 10 -24 27c0 47 77 89 120 89c88 0 122 -86 124 -162c1 -25 1 -142 0 -168c2 -21 5 -59 34 -59c2 0 6 1 6 1c53 46 59 117 59 184c0 97 -30 337 -173 337c-24 0 -60 0 -82 -12c-128 -71 -145 -263 -145 -389c0 -125 54 -323 211 -323c48 0 76 10 107 48
c16 19 33 80 70 75c3 -1 17 -19 16 -23c-2 -22 -27 -62 -39 -76c-41 -48 -98 -69 -160 -69c-176 0 -253 214 -256 358zM206 318c0 -31 13 -41 44 -41c67 0 101 49 101 113v15c-23 14 -68 20 -93 6c-30 -17 -52 -60 -52 -93z" />
    <glyph glyph-name="A" unicode="A" 
d="M51 2l44 746c6 92 66 68 83 0c25 -100 44 -191 153 -721c0 -22 -30 -39 -48 -7l-36 180l-135 -20c-8 -47 -15 -136 -17 -178c-2 -24 -45 -18 -44 0zM139 691c-4 -61 -22 -347 -25 -409c-1 -7 -2 -46 -2 -54l125 18z" />
    <glyph glyph-name="B" unicode="B" horiz-adv-x="426" 
d="M113 14c-39 23 -41 626 -57 716c-6 34 -6 43 -6 69c0 18 21 28 38 27c95 -6 180 -46 180 -150c0 -69 -6 -78 -58 -125c130 -58 166 -199 166 -332c0 -104 -78 -178 -173 -205l-25 -6c-27 -5 -36 -5 -65 6zM119 516c0 -5 1 -31 1 -36c8 -150 19 -277 26 -421h6
c112 0 167 73 167 177c0 132 -48 280 -200 280zM106 769c0 -21 1 -115 2 -135c0 -9 4 -50 5 -57c3 -1 15 -1 17 -1c50 0 80 43 80 89c0 65 -38 104 -104 104z" />
    <glyph glyph-name="C" unicode="C" horiz-adv-x="428" 
d="M55 449c4 97 47 321 194 321h7c40 -2 88 -23 88 -72c0 -10 -3 -22 -17 -22c-33 1 -38 41 -75 46c-1 0 -3 1 -6 1c-137 0 -231 -628 -1 -638h5c72 0 44 93 101 93h3c14 0 24 -8 24 -22c-1 -18 -6 -18 -15 -39c-23 -49 -58 -74 -112 -74h-9c-193 9 -200 276 -187 406z" />
    <glyph glyph-name="D" unicode="D" horiz-adv-x="373" 
d="M70 776c1 17 29 22 44 22h4c180 -8 205 -219 205 -365c0 -15 -1 -30 -1 -43c-5 -190 -59 -343 -229 -343c-14 0 -28 1 -43 4c0 0 1 112 2 158c3 128 8 249 13 379c1 17 3 163 4 182zM126 742l-23 -651c8 -1 10 -1 11 -1c127 0 148 214 152 296c5 94 1 344 -140 356z" />
    <glyph glyph-name="E" unicode="E" horiz-adv-x="319" 
d="M65 93l-1 49v198c0 143 -14 235 -14 378v51c160 13 178 2 178 -20c0 -7 -5 -22 -12 -25h-109c-7 0 -7 -5 -7 -8c0 -106 10 -184 16 -293c15 -4 99 -1 116 -1c34 -1 57 -59 11 -59h-127l2 -234c24 -6 151 19 151 -25c0 -12 -6 -24 -19 -26h-5c-37 -3 -179 -14 -180 15z
" />
    <glyph glyph-name="F" unicode="F" horiz-adv-x="289" 
d="M75 108c0 57 -4 220 -6 276c-5 126 -19 282 -19 398c0 25 72 23 101 25c38 0 88 15 88 -37c0 -4 0 -15 -137 -15l13 -196l91 1c15 0 26 -20 26 -32c0 -27 -87 -16 -114 -20l3 -58c7 -144 6 -186 6 -330c0 -14 -9 -25 -23 -25c-9 0 -25 3 -29 13z" />
    <glyph glyph-name="G" unicode="G" horiz-adv-x="423" 
d="M220 22c-135 -8 -170 157 -170 418c0 79 18 232 105 274c50 24 180 14 180 -66c0 -12 -5 -25 -22 -25c-36 0 -49 54 -100 54h-4c-93 -5 -109 -145 -109 -220v-20c5 -100 5 -174 26 -268c10 -47 37 -97 95 -97h5c91 5 94 124 91 181l-8 148c-29 0 -58 -8 -90 -5
c-9 6 -12 31 -12 32c0 30 69 24 134 25c30 -8 26 -58 29 -120v-10c6 -109 15 -294 -130 -301c-7 0 -13 -1 -20 0z" />
    <glyph glyph-name="H" unicode="H" horiz-adv-x="373" 
d="M264 59c2 80 2 167 -6 248c-40 9 -88 13 -144 5v-259c0 -9 -19 -14 -25 -14c-12 0 -25 7 -27 20l-12 711c0 21 3 38 26 38c5 0 36 -5 36 -14l1 -427c37 -5 117 -3 149 -7v42c0 137 -8 255 -8 374c0 12 2 32 17 32s37 -7 39 -26l13 -718c0 -17 -15 -31 -34 -31h-5
c-7 1 -18 20 -20 26z" />
    <glyph glyph-name="I" unicode="I" horiz-adv-x="203" 
d="M51 758c1 25 51 16 53 -8l44 -610c2 -19 5 -35 5 -53c-1 -16 -17 -22 -34 -22c-22 0 -26 19 -29 38l-25 439c-5 72 -16 144 -14 216z" />
    <glyph glyph-name="J" unicode="J" horiz-adv-x="333" 
d="M51 91c2 15 16 18 28 17c18 -2 30 -21 50 -21c27 0 45 48 49 68c35 158 33 322 39 495c1 44 0 91 6 135c3 14 3 28 19 28c17 -2 40 -9 40 -32c-21 -199 -14 -413 -37 -571c-10 -73 -25 -174 -113 -174c-4 0 -9 0 -14 1c-27 3 -67 15 -67 48v6z" />
    <glyph glyph-name="K" unicode="K" horiz-adv-x="422" 
d="M84 13v76c0 239 -5 489 -34 720c-1 20 52 32 58 -9l20 -400c23 43 49 102 63 148c26 112 29 170 40 227c4 9 4 27 20 27c29 -5 34 -17 34 -40c0 -123 -53 -247 -108 -376l-11 -26c156 -109 194 -236 214 -330c6 -30 -16 -31 -28 -31c-52 0 -23 227 -225 319
c0 -88 15 -236 3 -318c-1 -6 -4 -7 -9 -7c-14 0 -29 8 -37 20z" />
    <glyph glyph-name="L" unicode="L" horiz-adv-x="334" 
d="M50 795c5 11 11 15 20 15c16 0 29 -20 33 -35c8 -226 7 -455 27 -682c30 8 81 21 120 21c18 0 34 -5 34 -25c0 -13 -3 -23 -20 -29c-34 -12 -79 -10 -114 -20c-13 -3 -27 -13 -43 -13c-12 0 -29 14 -31 27c-12 120 -7 249 -13 367l-13 247v127z" />
    <glyph glyph-name="M" unicode="M" horiz-adv-x="515" 
d="M50 56l11 456c4 161 17 277 43 277c1 0 3 0 4 -1c5 -5 28 -8 34 -33c18 -73 45 -206 104 -290c7 6 45 72 65 108l5 8c37 67 62 115 86 180c6 12 14 18 29 18c14 -1 21 -5 34 -15c-7 -222 -3 -445 -8 -667l-1 -48c-5 -12 -16 -24 -32 -24c-8 0 -18 8 -23 14l1 59
c4 181 -4 362 3 543c-24 -43 -48 -86 -69 -131c-9 -15 -50 -97 -59 -117c-6 -13 -33 -44 -48 -10c-100 227 -103 227 -104 227c-22 -181 -24 -366 -26 -549c-2 -11 -12 -19 -21 -19c-6 0 -24 7 -28 14z" />
    <glyph glyph-name="N" unicode="N" horiz-adv-x="444" 
d="M50 29l25 719c19 36 48 4 58 -10c60 -172 101 -347 174 -526l10 140c11 126 12 235 11 361c4 17 22 25 38 25c12 0 22 -3 28 -13c-18 -216 -26 -446 -33 -676l-1 -13c-2 -5 -15 -19 -24 -19s-24 12 -28 19c-62 187 -132 370 -192 558l-7 -570c-23 -52 -58 -25 -59 5z" />
    <glyph glyph-name="O" unicode="O" horiz-adv-x="450" 
d="M83 192c-13 60 -117 589 134 589c222 0 252 -711 32 -730c-4 0 -8 -1 -12 -1c-84 0 -130 50 -154 142zM211 726c-151 -14 -99 -415 -80 -488c8 -33 41 -128 91 -133c5 -1 9 0 12 0c67 6 89 123 98 170c16 80 29 451 -113 451h-8z" />
    <glyph glyph-name="P" unicode="P" horiz-adv-x="346" 
d="M50 17v4c1 116 5 656 7 773c9 12 33 20 47 20c129 0 192 -108 192 -228c0 -143 -60 -223 -178 -292l-7 -61c-2 -33 -6 -186 -7 -218c-5 -17 -10 -22 -27 -22c-14 0 -27 6 -27 24zM118 745l-7 -341v-43c11 0 32 14 34 16c67 53 83 116 83 197c0 62 -8 179 -96 179
c-6 0 -11 0 -14 -8z" />
    <glyph glyph-name="Q" unicode="Q" horiz-adv-x="490" 
d="M310 55c-19 -25 -52 -47 -85 -47c-164 0 -175 334 -175 444c0 83 13 375 140 375c164 0 175 -304 175 -423c0 -97 -9 -192 -28 -287c27 -36 64 -73 96 -102c5 -4 7 -14 7 -21c-6 -18 -21 -22 -35 -22c-4 0 -13 1 -13 2zM111 408c0 -54 12 -339 101 -339c23 0 51 7 51 35
c0 1 0 5 -1 6c-6 6 -35 34 -41 41c-17 18 -21 19 -21 37s14 25 32 25c26 0 41 -23 58 -42c16 86 20 176 20 263c0 56 -17 348 -110 332c-76 -13 -88 -212 -88 -273c0 -4 -1 -63 -1 -85z" />
    <glyph glyph-name="R" unicode="R" 
d="M64 42c1 60 1 336 0 396c0 31 -5 213 -7 260c0 10 -6 98 -7 109v4c0 23 26 29 46 29c138 0 187 -99 187 -214c0 -92 -35 -148 -99 -194c115 -51 143 -214 143 -326c0 -18 -11 -25 -29 -25c-12 0 -17 0 -22 16c-5 75 -24 287 -140 287c-1 0 -8 -1 -10 -1
c-11 -113 -2 -227 -9 -341c-13 -18 -41 -19 -53 0zM100 772l19 -310c71 14 110 92 110 155c0 53 -22 163 -94 163c-4 0 -35 0 -35 -8z" />
    <glyph glyph-name="S" unicode="S" horiz-adv-x="358" 
d="M51 120c1 12 16 24 30 24c37 -6 30 -55 70 -61c65 -11 80 35 89 89c18 113 -37 198 -97 292c-28 44 -43 82 -34 138c14 79 52 133 135 133c7 0 14 0 22 -1c27 -3 46 -9 41 -37c-9 -49 -115 34 -138 -106c-11 -64 15 -90 49 -148c53 -92 99 -174 81 -282
c-14 -82 -48 -130 -129 -130c-8 0 -16 0 -24 1c-35 6 -96 40 -96 81c0 2 1 5 1 7z" />
    <glyph glyph-name="T" unicode="T" horiz-adv-x="403" 
d="M155 115c1 71 5 278 5 350c0 77 -1 271 -2 272l-80 3c-32 9 -44 40 5 52c78 -2 154 0 235 -6c45 -4 42 -54 13 -54l-109 2c-1 -1 -5 -318 -7 -447c0 -41 -4 -118 -4 -166v-13c-8 -30 -49 -21 -56 7z" />
    <glyph glyph-name="U" unicode="U" horiz-adv-x="445" 
d="M53 464c3 108 3 216 14 324c6 6 16 12 25 12c36 0 34 -38 33 -64v-6c-2 -100 -14 -198 -16 -298c-2 -68 -34 -342 73 -342c49 0 82 96 89 127c37 175 60 359 60 535v22c0 15 20 20 33 20c17 0 31 -15 31 -30l-1 -15c-10 -154 -22 -296 -49 -449l-2 -13
c-1 -2 -1 -6 -3 -10c-12 -72 -41 -237 -152 -237c-127 0 -137 136 -137 223v18c0 6 1 135 2 183z" />
    <glyph glyph-name="V" unicode="V" horiz-adv-x="455" 
d="M218 34c-59 239 -101 482 -167 720l-1 6c0 15 19 20 32 21c31 0 34 -22 40 -52c28 -149 62 -314 119 -557l101 568c2 13 16 25 31 26c16 0 31 -6 32 -26l-112 -573c-5 -16 -27 -146 -46 -146c-1 0 -2 0 -3 -1c-10 2 -20 0 -26 14z" />
    <glyph glyph-name="W" unicode="W" horiz-adv-x="595" 
d="M155 26l-26 261c-15 159 -47 320 -78 476v9c0 15 1 31 22 31c13 0 37 -2 37 -21c5 -35 32 -205 38 -241c19 -111 29 -222 46 -332c13 43 54 226 60 261c4 24 62 57 70 19l42 -189c10 -40 14 -85 23 -117c17 92 72 429 84 502c6 34 1 105 49 105c16 0 23 -12 23 -26
c0 -4 0 -13 -1 -15c-43 -238 -89 -473 -116 -716c-5 -13 -15 -26 -29 -26c-9 0 -19 6 -23 12l-86 381l-70 -334c-5 -28 1 -60 -36 -60c-15 0 -21 4 -29 20z" />
    <glyph glyph-name="X" unicode="X" horiz-adv-x="432" 
d="M213 326l-110 -312c-3 -1 -16 -1 -19 -1c-12 0 -33 -2 -33 16v4c1 3 12 29 13 33c17 50 94 288 110 338v14c0 22 -3 29 -12 58c-9 24 -49 138 -59 163c-5 14 -33 82 -39 98c-5 14 -14 23 -14 39c0 20 6 21 25 21c37 0 50 -46 61 -74c10 -30 61 -171 71 -202l59 190
c6 25 16 109 58 97c22 -6 20 -35 19 -52l-58 -169c-12 -38 -39 -134 -39 -137v-39c0 -1 31 -98 45 -137c30 -85 65 -169 91 -255c-8 -17 -14 -20 -28 -20c-9 0 -17 1 -24 8l-6 12c-4 10 -29 83 -33 92c-22 60 -43 122 -65 183c-3 10 -12 32 -13 32z" />
    <glyph glyph-name="Y" unicode="Y" horiz-adv-x="392" 
d="M221 25c-14 126 -16 308 -45 419c-18 36 -103 207 -119 243c-26 57 30 65 40 37l114 -240l67 265c4 28 64 26 64 -7v-4l-99 -304l35 -406c0 -16 -13 -22 -27 -22s-27 5 -30 19z" />
    <glyph glyph-name="Z" unicode="Z" horiz-adv-x="380" 
d="M109 63h-2c-20 0 -34 19 -34 40c65 160 111 331 164 518c5 28 16 55 20 83c-60 1 -120 9 -180 11c-19 0 -45 45 -5 58l258 -19c-61 -202 -122 -421 -183 -630c52 -1 106 2 157 2c31 0 29 -54 -3 -55c-58 -4 -117 -6 -192 -8z" />
    <glyph glyph-name="backslash" unicode="\" horiz-adv-x="367" 
d="M317 17c0 -18 -9 -23 -30 -23c-10 0 -15 9 -17 17c-65 196 -117 403 -174 601c-16 58 -46 116 -46 175c0 23 10 35 33 35c4 0 13 -1 13 -1c3 -3 5 -27 6 -30c62 -256 138 -511 214 -763c0 -1 1 -10 1 -11z" />
    <glyph glyph-name="underscore" unicode="_" horiz-adv-x="636" 
d="M76 -15c-35 4 -33 48 2 50c162 1 324 13 486 14c29 -9 28 -44 -2 -50c-162 -1 -324 -13 -486 -14z" />
    <glyph glyph-name="a" unicode="a" horiz-adv-x="399" 
d="M273 218h-148l-6 -6l-17 -113c-2 -15 -1 -58 -30 -58c-13 0 -22 26 -22 36c104 725 105 727 105 727c5 19 12 47 37 47c11 0 25 -5 31 -15l8 -21c58 -229 85 -464 112 -700l6 -65c0 -1 -1 -1 -1 -2c-7 -19 -11 -27 -30 -27h-3c-6 0 -16 0 -17 7zM198 744l-58 -464l125 -3
z" />
    <glyph glyph-name="b" unicode="b" horiz-adv-x="417" 
d="M50 778c65 74 212 53 212 -70c0 -52 -20 -99 -54 -137c114 -71 159 -156 159 -290c0 -143 -79 -265 -236 -265c-7 0 -27 1 -35 15c-11 154 -11 307 -26 488l-20 238v21zM149 77c6 -1 12 -1 18 -1c106 0 141 109 141 205c0 111 -51 246 -182 246c0 -151 11 -300 23 -450z
M108 756l15 -165c51 0 85 58 85 113c0 57 -47 77 -100 52z" />
    <glyph glyph-name="c" unicode="c" horiz-adv-x="380" 
d="M283 797c21 0 47 -14 47 -37c0 -35 -58 -28 -72 -28h-6c-97 0 -140 -201 -140 -314c0 -128 8 -219 96 -292c43 -36 109 1 124 -26c20 -35 -17 -47 -49 -47c-227 5 -262 306 -216 501c24 104 86 243 216 243z" />
    <glyph glyph-name="d" unicode="d" horiz-adv-x="372" 
d="M50 33v170c1 86 1 486 0 571v4c0 22 8 45 29 54h9c40 0 82 -9 112 -36c107 -96 127 -268 121 -404c-8 -193 -53 -377 -218 -397c-32 -4 -53 1 -53 38zM114 768c-2 -56 -7 -317 -7 -372c0 -89 -2 -241 0 -343c124 19 158 217 158 327c0 79 -5 388 -144 388h-7z" />
    <glyph glyph-name="e" unicode="e" horiz-adv-x="334" 
d="M61 32l-11 698c0 18 17 35 35 35h158c6 0 26 -15 27 -20c1 -2 1 -3 1 -5c0 -20 -27 -29 -43 -29h-120l5 -332l108 16h5c47 0 29 -46 -11 -52l-100 -15l-3 -261c9 -1 43 -1 52 -1c67 0 116 23 119 -23c2 -34 -222 -30 -222 -11z" />
    <glyph glyph-name="f" unicode="f" horiz-adv-x="320" 
d="M51 705v2c0 51 33 82 115 87c25 0 102 11 104 -30c0 -14 -16 -18 -27 -19c-30 1 -130 13 -130 -41v-8c4 -65 9 -145 16 -202c15 -2 39 -2 56 -1c16 1 74 24 74 -12c0 -47 -104 -34 -127 -43c-8 -109 18 -218 19 -340v-4c0 -43 -46 -34 -52 -4c-12 98 -43 420 -48 615z
" />
    <glyph glyph-name="g" unicode="g" horiz-adv-x="421" 
d="M51 387v14c0 125 15 381 183 390l8 1c39 0 111 -25 111 -63c0 -4 -1 -8 -3 -13c-20 -48 -54 22 -112 30h-5c-92 -12 -125 -135 -125 -302v-22l2 -109c4 -67 25 -226 115 -226h4c66 4 76 139 79 186c4 34 9 69 7 106c-3 63 -114 -5 -117 48c0 23 28 28 45 28l18 1
c24 1 110 3 110 -38v-19c-1 -31 -9 -142 -11 -158c-9 -88 -29 -199 -136 -204h-8c-153 0 -164 243 -165 350z" />
    <glyph glyph-name="h" unicode="h" horiz-adv-x="366" 
d="M250 316h-143v-282c0 -45 -55 -28 -57 -15c0 36 2 202 2 237c0 78 7 481 8 558c8 8 17 8 28 8c14 0 22 -9 31 -21c0 -96 -9 -233 -9 -335c0 -14 0 -78 1 -91c8 -9 15 -7 24 -7c38 0 76 0 113 -2c8 113 12 308 9 435v5c0 15 12 22 26 22c12 0 26 -10 33 -20
c0 -22 -3 -86 -4 -107c-14 -459 11 -691 -22 -692c-35 -1 -35 42 -35 109c0 18 -5 180 -5 198z" />
    <glyph glyph-name="i" unicode="i" horiz-adv-x="189" 
d="M50 19l27 742c7 20 12 21 33 21c29 0 29 -13 29 -42c0 -3 -1 -16 -1 -18l-30 -684c-2 -44 -58 -48 -58 -19z" />
    <glyph glyph-name="j" unicode="j" horiz-adv-x="335" 
d="M51 57c1 16 12 21 27 21h5c40 -2 14 -36 48 -36c95 0 80 601 88 660c5 39 -6 55 25 67h4c36 -2 39 -20 40 -51l-11 -182c-19 -397 -31 -540 -150 -540h-8c-31 2 -68 23 -68 61z" />
    <glyph glyph-name="k" unicode="k" horiz-adv-x="403" 
d="M78 16l-28 773c0 17 12 29 28 29c20 0 29 -12 30 -38l10 -334c60 120 110 226 134 310c8 28 9 68 45 68c14 0 41 -6 27 -50l-162 -374l187 -347c10 -18 1 -45 -25 -45c-13 0 -18 0 -26 13c-56 101 -110 233 -178 337v-8c0 -46 13 -210 13 -336c-11 -27 -53 -38 -55 2z
" />
    <glyph glyph-name="l" unicode="l" horiz-adv-x="349" 
d="M279 40l-203 -30c-1 0 -13 516 -13 584c0 19 -12 172 -13 191v7c0 8 0 11 7 18c3 1 15 2 19 2c18 0 26 1 32 -21c9 -39 5 -63 6 -102c5 -204 7 -411 19 -617h7c42 0 82 14 125 14c16 0 34 -4 34 -24c0 -11 -6 -20 -20 -22z" />
    <glyph glyph-name="m" unicode="m" horiz-adv-x="496" 
d="M389 34c3 202 -3 403 -13 604l-108 -266c-2 -20 -49 -22 -57 -13c-1 1 -6 9 -7 12c-26 84 -49 167 -82 249c-17 -188 4 -380 -20 -567c-11 -7 -19 -7 -31 -7c-21 0 -20 5 -20 24c0 32 9 53 7 684c0 30 46 53 58 20l122 -334c29 33 116 314 138 351c10 20 32 17 57 0
c1 0 6 -330 7 -471c1 -89 6 -182 6 -272c0 -18 -12 -34 -31 -34c-16 0 -20 4 -26 20z" />
    <glyph glyph-name="n" unicode="n" horiz-adv-x="469" 
d="M50 32l12 704c-2 40 53 64 74 6l204 -553c1 44 9 290 15 388c3 60 -1 121 12 177c0 11 11 11 26 11c24 -1 26 -2 25 -24c-3 -104 -18 -208 -22 -312c-2 -58 -12 -335 -12 -393c-7 -21 -38 -9 -46 8c-10 21 -18 41 -230 608l-7 -614c0 -30 -51 -27 -51 -6z" />
    <glyph glyph-name="o" unicode="o" horiz-adv-x="437" 
d="M50 448c0 127 9 360 186 360c179 -20 153 -446 143 -579c-7 -73 -44 -200 -144 -200c-177 0 -185 302 -185 419zM108 540c-1 -32 -1 -60 -1 -88c0 -293 54 -373 125 -373c98 0 99 254 99 317v4c0 77 -21 357 -116 357c-75 0 -107 -167 -107 -217z" />
    <glyph glyph-name="p" unicode="p" horiz-adv-x="328" 
d="M50 -12v259c0 80 5 454 7 534c5 14 30 12 42 12c104 0 179 -92 179 -192c0 -108 -74 -229 -173 -275c-1 -16 -5 -94 -5 -110c-1 -34 -1 -188 0 -221c-6 -10 -21 -13 -31 -13c-9 0 -11 1 -19 6zM110 740l-7 -347c7 0 16 2 21 7c58 53 92 114 92 194c0 52 -37 146 -106 146
z" />
    <glyph glyph-name="q" unicode="q" horiz-adv-x="480" 
d="M50 369c0 131 13 298 103 404c48 57 107 56 151 18c119 -198 99 -471 51 -679l70 -48c14 -26 -11 -38 -22 -38l-69 37c-47 -72 -143 -91 -204 -24c-66 60 -80 249 -80 330zM244 761c-3 1 -6 1 -9 1c-145 0 -192 -718 -15 -718h6c25 3 54 29 54 53c0 28 -54 29 -54 57
c0 7 1 12 7 19c24 0 52 -20 74 -33c35 188 45 377 -15 559c-7 20 -22 62 -48 62z" />
    <glyph glyph-name="r" unicode="r" horiz-adv-x="334" 
d="M50 5v84c0 225 8 452 14 677c2 46 19 46 59 46h10c92 0 151 -60 151 -148v-11c0 -73 -19 -158 -85 -203c5 -5 28 -32 32 -39c45 -59 34 -202 39 -271c0 -6 6 -52 6 -58v-8c0 -17 -16 -19 -29 -19h-1c-11 0 -24 0 -28 14c-1 33 -10 186 -12 220c-4 49 -14 116 -75 116h-16
c-2 -9 -6 -49 -6 -58c-1 -9 -6 -231 -7 -316c0 -19 3 -40 -22 -40c-11 0 -23 4 -30 14zM115 485c0 -8 7 -9 13 -9c71 0 98 131 98 177c0 47 -22 107 -79 107c-15 0 -25 -9 -25 -26c1 -87 -7 -160 -7 -249z" />
    <glyph glyph-name="s" unicode="s" horiz-adv-x="336" 
d="M56 163c0 17 23 34 39 29c40 -12 2 -100 52 -129h6c56 0 72 77 72 118c0 55 -4 114 -27 166c-47 108 -148 198 -148 322c0 56 34 149 103 149c44 0 117 -35 117 -87c0 -19 -6 -30 -26 -30c-39 0 -27 60 -82 60c-51 0 -55 -71 -55 -106c0 -101 85 -172 130 -256
c41 -77 62 -189 38 -265c-16 -52 -61 -123 -122 -123c-74 0 -97 92 -97 152z" />
    <glyph glyph-name="t" unicode="t" horiz-adv-x="349" 
d="M162 112l-20 633c-62 -4 -90 -3 -92 14c2 34 2 46 106 40h84c22 -1 59 -4 59 -33c0 -9 -11 -19 -20 -19h-84l19 -635c0 -9 -20 -14 -26 -14s-26 5 -26 14z" />
    <glyph glyph-name="u" unicode="u" horiz-adv-x="376" 
d="M326 247c-2 -87 -3 -186 -107 -186c-7 0 -15 1 -24 2c-123 15 -132 319 -142 669l-2 49v5c0 22 53 21 60 1c17 -29 -27 -680 110 -680c35 0 46 57 47 84c3 124 1 403 -4 596c5 16 11 18 29 18c16 0 30 -3 31 -20c5 -176 -3 -354 2 -538z" />
    <glyph glyph-name="v" unicode="v" horiz-adv-x="414" 
d="M172 40c-53 250 -74 520 -122 775c6 8 38 20 46 12c4 -2 18 -15 19 -19l85 -616c33 183 68 414 100 597c0 34 14 39 32 39c15 0 25 -2 32 -20c-43 -165 -68 -337 -96 -505l-39 -257c-7 -18 -17 -19 -31 -19c-11 0 -22 0 -26 13z" />
    <glyph glyph-name="w" unicode="w" horiz-adv-x="569" 
d="M291 344c-12 -137 -36 -214 -48 -307c0 -1 -1 -2 -1 -3c-6 -23 -9 -40 -35 -43c-14 -1 -16 -1 -25 11l-13 66c-28 182 -52 361 -85 542c-8 41 -18 85 -33 125c-1 4 -1 5 -1 5c0 29 59 33 64 8c29 -134 56 -319 80 -456l19 -110c21 77 27 158 37 231c2 16 16 27 33 29
c11 1 22 1 29 -10l111 -276c5 176 25 472 36 628c11 26 55 29 59 -4c3 -32 -10 -99 -12 -131c-17 -212 -19 -422 -28 -633c-11 -12 -7 -21 -27 -23h-7c-26 0 -25 21 -34 45z" />
    <glyph glyph-name="x" unicode="x" horiz-adv-x="467" 
d="M221 350c-21 -98 -49 -211 -73 -308c-4 -15 -13 -26 -29 -27h-4c-12 0 -23 4 -23 17c-1 11 2 19 5 31c16 58 82 316 94 364l-138 303c0 4 -2 11 -2 12c0 17 17 20 34 20c15 0 24 -7 32 -23c30 -66 59 -140 82 -196l5 -12c0 -2 5 -10 7 -12c22 80 51 225 71 285
c3 8 13 8 21 8h2c19 1 36 -2 37 -24c-27 -104 -65 -241 -95 -351c12 -35 74 -188 88 -221l73 -155c5 -11 8 -14 8 -23c0 -14 -19 -26 -34 -26c-11 0 -18 7 -23 17c-126 297 -132 318 -138 321z" />
    <glyph glyph-name="y" unicode="y" horiz-adv-x="435" 
d="M161 -5c0 4 1 8 1 15c3 75 15 334 15 374l-85 231c-4 9 -32 82 -35 91c-5 11 -7 16 -7 24c1 11 11 17 24 17c17 0 34 -5 42 -21c31 -89 53 -191 91 -276c10 8 106 231 103 232c9 23 9 58 44 58c16 -1 30 -3 30 -19v-7c-41 -113 -116 -220 -146 -334l-18 -381
c-1 -16 -18 -19 -34 -18h-2c-9 1 -20 2 -23 14z" />
    <glyph glyph-name="z" unicode="z" horiz-adv-x="373" 
d="M120 56v5c0 23 14 63 18 81c40 194 59 392 99 596h-147c-16 0 -37 3 -39 18c-1 8 4 33 31 33c68 0 129 2 194 2c17 0 22 -6 24 -21l-116 -685c31 0 68 13 100 13c14 0 39 -4 39 -26c0 -30 -68 -29 -85 -32c-36 -6 -54 -13 -83 -13c-15 0 -32 12 -35 29z" />
    <glyph glyph-name="exclamdown" unicode="&#xa1;" horiz-adv-x="205" 
d="M155 20c-6 -15 -10 -20 -26 -20c-14 0 -31 2 -34 20c-1 15 -6 86 -6 101c0 207 -22 326 -22 534c0 14 0 31 19 31c32 0 33 -39 34 -63v-5c14 -229 10 -370 35 -598zM129 765c0 -13 -22 -30 -34 -30c-27 0 -45 21 -45 49c0 22 21 25 40 25c25 0 39 -16 39 -44z" />
    <glyph glyph-name="sterling" unicode="&#xa3;" horiz-adv-x="480" 
d="M430 67c0 -11 -2 -23 -11 -25c-71 3 -143 -6 -215 -6h-74c-12 0 -25 21 -26 33c5 13 12 157 10 157c-22 0 -64 0 -64 28c0 10 8 15 21 15h47c6 134 8 265 23 371c10 73 25 174 113 174c4 0 9 0 14 -1c27 -3 67 -15 67 -48v-6c-2 -15 -16 -18 -28 -17c-18 2 -30 21 -50 21
c-27 0 -45 -48 -49 -68c-30 -138 -33 -280 -37 -429c26 -1 51 -1 77 0c19 -4 28 -12 28 -29c0 -6 -2 -8 -12 -12c-9 -2 -56 -2 -94 -1c0 -8 0 -16 -1 -24c-1 -38 0 -78 -4 -117l249 15c11 0 16 -16 16 -31z" />
    <glyph glyph-name="ordfeminine" unicode="&#xaa;" horiz-adv-x="347" 
d="M296 607c-2 -35 -25 -86 -51 -33c-33 -17 -61 -22 -99 -22c-64 0 -96 23 -96 78c0 44 48 108 103 120c39 8 47 3 83 3c0 5 4 27 3 31c-5 29 -26 60 -63 63c-47 5 -61 -58 -96 -58c-18 0 -24 8 -24 23c0 40 76 75 118 75c87 0 120 -73 122 -137c1 -21 1 -121 0 -143z
M102 627c0 -26 13 -35 43 -35c66 0 100 42 100 96v13c-23 12 -67 17 -92 5c-29 -15 -51 -51 -51 -79z" />
    <glyph glyph-name="guillemotleft" unicode="&#xab;" horiz-adv-x="510" 
d="M61 323c-9 13 -15 30 -7 46l197 132c33 13 51 -26 22 -45l-171 -104l157 -117c27 -21 6 -57 -26 -43zM233 317c-9 13 -15 30 -7 46l197 132c33 13 51 -26 22 -45l-171 -104l157 -117c27 -21 6 -57 -26 -43z" />
    <glyph glyph-name="ordmasculine" unicode="&#xba;" horiz-adv-x="326" 
d="M97 881c146 99 211 -121 163 -236c-20 -47 -66 -81 -130 -63c-107 29 -94 258 -33 299zM187 847c-69 40 -87 -79 -87 -119v-6c1 -29 11 -96 54 -96c4 0 8 1 12 2c65 16 89 180 21 219z" />
    <glyph glyph-name="guillemotright" unicode="&#xbb;" horiz-adv-x="510" 
d="M277 317l-172 -131c-32 -14 -53 22 -26 43l157 117l-171 104c-29 19 -11 58 22 45l197 -132c8 -16 2 -33 -7 -46zM449 323l-172 -131c-32 -14 -53 22 -26 43l157 117l-171 104c-29 19 -11 58 22 45l197 -132c8 -16 2 -33 -7 -46z" />
    <glyph glyph-name="questiondown" unicode="&#xbf;" horiz-adv-x="358" 
d="M223 610v-105c0 -73 5 -150 -27 -218c-28 -62 -80 -118 -80 -189c0 -30 10 -50 45 -50c67 0 80 100 125 100c15 0 22 -14 22 -28c0 -70 -83 -125 -142 -125c-61 0 -116 37 -116 103c0 118 113 196 113 314v198c0 13 15 14 23 14c12 0 30 -2 37 -14zM223 719v-17
c-9 -8 -16 -7 -26 -7c-36 0 -41 14 -41 48c0 3 1 22 1 26c2 10 19 7 23 7c36 0 43 -22 43 -57z" />
    <glyph glyph-name="Agrave" unicode="&#xc0;" 
d="M51 2l44 746c6 92 66 68 83 0c25 -100 44 -191 153 -721c0 -22 -30 -39 -48 -7l-36 180l-135 -20c-8 -47 -15 -136 -17 -178c-2 -24 -45 -18 -44 0zM139 691c-4 -61 -22 -347 -25 -409c-1 -7 -2 -46 -2 -54l125 18zM184 882c0 -13 -11 -23 -24 -23c-6 0 -8 0 -14 5
l-37 28l-51 32c-6 4 -5 5 -5 12c0 13 15 25 28 25c0 0 7 -3 9 -4l65 -42c12 -8 29 -17 29 -33z" />
    <glyph glyph-name="Aacute" unicode="&#xc1;" 
d="M51 2l44 746c6 92 66 68 83 0c25 -100 44 -191 153 -721c0 -22 -30 -39 -48 -7l-36 180l-135 -20c-8 -47 -15 -136 -17 -178c-2 -24 -45 -18 -44 0zM139 691c-4 -61 -22 -347 -25 -409c-1 -7 -2 -46 -2 -54l125 18zM62 900c0 16 17 25 29 33l65 42c2 1 9 4 9 4
c13 0 28 -12 28 -25c0 -7 1 -8 -5 -12l-51 -32l-37 -28c-6 -5 -8 -5 -14 -5c-13 0 -24 10 -24 23z" />
    <glyph glyph-name="Acircumflex" unicode="&#xc2;" 
d="M51 2l44 746c6 92 66 68 83 0c25 -100 44 -191 153 -721c0 -22 -30 -39 -48 -7l-36 180l-135 -20c-8 -47 -15 -136 -17 -178c-2 -24 -45 -18 -44 0zM139 691c-4 -61 -22 -347 -25 -409c-1 -7 -2 -46 -2 -54l125 18zM11 843c0 2 0 7 1 8c16 30 53 62 75 90
c7 8 17 34 30 34c19 0 31 -21 40 -34c4 -5 35 -47 38 -52c4 -5 31 -34 33 -38c4 -4 5 -9 5 -15c0 -8 -5 -14 -13 -14c-6 0 -10 2 -16 5c-29 30 -52 65 -79 95c-19 -19 -73 -101 -92 -101c-12 0 -22 9 -22 22z" />
    <glyph glyph-name="Atilde" unicode="&#xc3;" 
d="M51 2l44 746c6 92 66 68 83 0c25 -100 44 -191 153 -721c0 -22 -30 -39 -48 -7l-36 180l-135 -20c-8 -47 -15 -136 -17 -178c-2 -24 -45 -18 -44 0zM139 691c-4 -61 -22 -347 -25 -409c-1 -7 -2 -46 -2 -54l125 18zM80 906c-29 0 -29 -51 -48 -51c-11 0 -30 7 -30 20
c0 34 35 73 69 73c56 0 82 -61 97 -61c49 0 19 48 48 48c21 0 27 -15 27 -34c0 -36 -24 -56 -62 -56c-60 0 -70 61 -101 61z" />
    <glyph glyph-name="Adieresis" unicode="&#xc4;" 
d="M51 2l44 746c6 92 66 68 83 0c25 -100 44 -191 153 -721c0 -22 -30 -39 -48 -7l-36 180l-135 -20c-8 -47 -15 -136 -17 -178c-2 -24 -45 -18 -44 0zM139 691c-4 -61 -22 -347 -25 -409c-1 -7 -2 -46 -2 -54l125 18zM9 891c0 13 22 30 34 30c27 0 45 -21 45 -49
c0 -22 -21 -25 -40 -25c-25 0 -39 16 -39 44zM141 901c0 13 19 30 29 30c23 0 38 -21 38 -50c0 -23 -17 -26 -34 -26c-21 0 -33 17 -33 46z" />
    <glyph glyph-name="Aring" unicode="&#xc5;" 
d="M36 866c0 62 31 103 96 103c44 0 76 -32 76 -77c0 -44 -17 -84 -55 -96c10 -11 20 -28 25 -48c25 -100 44 -191 153 -721c0 -22 -30 -39 -48 -7l-36 180l-135 -20c-8 -47 -15 -136 -17 -178c-2 -24 -45 -18 -44 0l44 746c1 20 5 35 11 45c-39 5 -70 30 -70 73zM139 691
c-4 -61 -22 -347 -25 -409c-1 -7 -2 -46 -2 -54l125 18zM74 866c0 -22 17 -33 38 -33c35 0 55 23 55 57c0 19 -7 41 -30 41c-37 0 -63 -29 -63 -65z" />
    <glyph glyph-name="AE" unicode="&#xc6;" horiz-adv-x="544" 
d="M323 760c-93 0 -124 -1 -149 -2l3 -10c20 -78 35 -152 94 -436l11 -52c5 0 15 1 16 1c19 0 97 13 112 15h5c32 0 59 -38 16 -45l-139 -21l32 -154h19v-5c24 -6 151 19 151 -25c0 -12 -6 -24 -19 -26h-12c-36 -3 -126 -9 -160 2c-7 1 -15 7 -21 18l-36 180l-135 -20
c-8 -47 -15 -136 -17 -178c-3 -24 -44 -19 -44 0l44 746c3 45 20 57 45 57c155 12 196 1 196 -20c0 -7 -5 -22 -12 -25zM138 691c-4 -61 -22 -347 -25 -409c-1 -7 -2 -46 -2 -54l125 18z" />
    <glyph glyph-name="Ccedilla" unicode="&#xc7;" horiz-adv-x="428" 
d="M143 -87c0 9 3 22 14 22c29 0 24 -24 54 -24c20 0 44 5 44 31c0 54 -93 -12 -93 102v22c-115 69 -118 274 -107 383c4 97 47 321 194 321h7c40 -2 88 -23 88 -72c0 -10 -3 -22 -17 -22c-33 1 -38 41 -75 46c-1 0 -3 1 -6 1c-137 0 -231 -628 -1 -638h5c72 0 44 93 101 93
h3c14 0 24 -8 24 -22c-1 -18 -6 -18 -15 -39c-23 -49 -58 -74 -112 -74h-9c-13 0 -25 2 -36 5v-30c109 -10 126 -169 -5 -148c-12 0 -58 28 -58 43z" />
    <glyph glyph-name="Egrave" unicode="&#xc8;" horiz-adv-x="319" 
d="M65 93l-1 49v198c0 143 -14 235 -14 378v51c160 13 178 2 178 -20c0 -7 -5 -22 -12 -25h-109c-7 0 -7 -5 -7 -8c0 -106 10 -184 16 -293c15 -4 99 -1 116 -1c34 -1 57 -59 11 -59h-127l2 -234c24 -6 151 19 151 -25c0 -12 -6 -24 -19 -26h-5c-37 -3 -179 -14 -180 15z
M195 888c0 -13 -11 -23 -24 -23c-6 0 -8 0 -14 5l-37 28l-51 32c-6 4 -5 5 -5 12c0 13 15 25 28 25c0 0 7 -3 9 -4l65 -42c12 -8 29 -17 29 -33z" />
    <glyph glyph-name="Eacute" unicode="&#xc9;" horiz-adv-x="319" 
d="M65 93l-1 49v198c0 143 -14 235 -14 378v51c160 13 178 2 178 -20c0 -7 -5 -22 -12 -25h-109c-7 0 -7 -5 -7 -8c0 -106 10 -184 16 -293c15 -4 99 -1 116 -1c34 -1 57 -59 11 -59h-127l2 -234c24 -6 151 19 151 -25c0 -12 -6 -24 -19 -26h-5c-37 -3 -179 -14 -180 15z
M93 888c0 16 17 25 29 33l65 42c2 1 9 4 9 4c13 0 28 -12 28 -25c0 -7 1 -8 -5 -12l-51 -32l-37 -28c-6 -5 -8 -5 -14 -5c-13 0 -24 10 -24 23z" />
    <glyph glyph-name="Ecircumflex" unicode="&#xca;" horiz-adv-x="319" 
d="M65 93l-1 49v198c0 143 -14 235 -14 378v51c160 13 178 2 178 -20c0 -7 -5 -22 -12 -25h-109c-7 0 -7 -5 -7 -8c0 -106 10 -184 16 -293c15 -4 99 -1 116 -1c34 -1 57 -59 11 -59h-127l2 -234c24 -6 151 19 151 -25c0 -12 -6 -24 -19 -26h-5c-37 -3 -179 -14 -180 15z
M11 845c0 2 0 7 1 8c16 30 53 62 75 90c7 8 17 34 30 34c19 0 31 -21 40 -34c4 -5 35 -47 38 -52c4 -5 31 -34 33 -38c4 -4 5 -9 5 -15c0 -8 -5 -14 -13 -14c-6 0 -10 2 -16 5c-29 30 -52 65 -79 95c-19 -19 -73 -101 -92 -101c-12 0 -22 9 -22 22z" />
    <glyph glyph-name="Edieresis" unicode="&#xcb;" horiz-adv-x="319" 
d="M65 93l-1 49v198c0 143 -14 235 -14 378v51c160 13 178 2 178 -20c0 -7 -5 -22 -12 -25h-109c-7 0 -7 -5 -7 -8c0 -106 10 -184 16 -293c15 -4 99 -1 116 -1c34 -1 57 -59 11 -59h-127l2 -234c24 -6 151 19 151 -25c0 -12 -6 -24 -19 -26h-5c-37 -3 -179 -14 -180 15z
M24 889c0 13 22 30 34 30c27 0 45 -21 45 -49c0 -22 -21 -25 -40 -25c-25 0 -39 16 -39 44zM156 899c0 13 19 30 29 30c23 0 38 -21 38 -50c0 -23 -17 -26 -34 -26c-21 0 -33 17 -33 46z" />
    <glyph glyph-name="Igrave" unicode="&#xcc;" horiz-adv-x="203" 
d="M51 758c1 25 51 16 53 -8l44 -610c2 -19 5 -35 5 -53c-1 -16 -17 -22 -34 -22c-22 0 -26 19 -29 38l-25 439c-5 72 -16 144 -14 216zM128 859c0 -13 -11 -23 -24 -23c-6 0 -8 0 -14 5l-37 28l-51 32c-6 4 -5 5 -5 12c0 13 15 25 28 25c0 0 7 -3 9 -4l65 -42
c12 -8 29 -17 29 -33z" />
    <glyph glyph-name="Iacute" unicode="&#xcd;" horiz-adv-x="203" 
d="M51 758c1 25 51 16 53 -8l44 -610c2 -19 5 -35 5 -53c-1 -16 -17 -22 -34 -22c-22 0 -26 19 -29 38l-25 439c-5 72 -16 144 -14 216zM-2 869c0 16 17 25 29 33l65 42c2 1 9 4 9 4c13 0 28 -12 28 -25c0 -7 1 -8 -5 -12l-51 -32l-37 -28c-6 -5 -8 -5 -14 -5
c-13 0 -24 10 -24 23z" />
    <glyph glyph-name="Icircumflex" unicode="&#xce;" horiz-adv-x="203" 
d="M51 758c1 25 51 16 53 -8l44 -610c2 -19 5 -35 5 -53c-1 -16 -17 -22 -34 -22c-22 0 -26 19 -29 38l-25 439c-5 72 -16 144 -14 216zM-55 856c0 2 0 7 1 8c16 30 53 62 75 90c7 8 17 34 30 34c19 0 31 -21 40 -34c4 -5 35 -47 38 -52c4 -5 31 -34 33 -38c4 -4 5 -9 5 -15
c0 -8 -5 -14 -13 -14c-6 0 -10 2 -16 5c-29 30 -52 65 -79 95c-19 -19 -73 -101 -92 -101c-12 0 -22 9 -22 22z" />
    <glyph glyph-name="Idieresis" unicode="&#xcf;" horiz-adv-x="203" 
d="M51 758c1 25 51 16 53 -8l44 -610c2 -19 5 -35 5 -53c-1 -16 -17 -22 -34 -22c-22 0 -26 19 -29 38l-25 439c-5 72 -16 144 -14 216zM-40 900c0 13 22 30 34 30c27 0 45 -21 45 -49c0 -22 -21 -25 -40 -25c-25 0 -39 16 -39 44zM92 910c0 13 19 30 29 30
c23 0 38 -21 38 -50c0 -23 -17 -26 -34 -26c-21 0 -33 17 -33 46z" />
    <glyph glyph-name="Eth" unicode="&#xd0;" horiz-adv-x="422" 
d="M76 391c-35 4 -33 48 2 50c10 0 20 0 30 -1l6 148c1 17 3 163 4 182l1 6c1 17 29 22 44 22h4c180 -8 205 -219 205 -365c0 -15 -1 -30 -1 -43c-5 -190 -59 -343 -229 -343c-14 0 -28 1 -43 4c0 0 1 112 2 158c1 61 3 121 5 181c-10 1 -20 1 -30 1zM175 742l-11 -305
c25 -1 49 -2 74 -2c29 -9 28 -44 -2 -50c-25 0 -49 1 -74 2l-10 -296c8 -1 10 -1 11 -1c127 0 148 214 152 296c5 94 1 344 -140 356z" />
    <glyph glyph-name="Ntilde" unicode="&#xd1;" horiz-adv-x="444" 
d="M50 29l25 719c19 36 48 4 58 -10c60 -172 101 -347 174 -526l10 140c11 126 12 235 11 361c4 17 22 25 38 25c12 0 22 -3 28 -13c-18 -216 -26 -446 -33 -676l-1 -13c-2 -5 -15 -19 -24 -19s-24 12 -28 19c-62 187 -132 370 -192 558l-7 -570c-23 -52 -58 -25 -59 5z
M193 869c-29 0 -29 -51 -48 -51c-11 0 -30 7 -30 20c0 34 35 73 69 73c56 0 82 -61 97 -61c49 0 19 48 48 48c21 0 27 -15 27 -34c0 -36 -24 -56 -62 -56c-60 0 -70 61 -101 61z" />
    <glyph glyph-name="Ograve" unicode="&#xd2;" horiz-adv-x="450" 
d="M83 192c-13 60 -117 589 134 589c222 0 252 -711 32 -730c-4 0 -8 -1 -12 -1c-84 0 -130 50 -154 142zM211 726c-151 -14 -99 -415 -80 -488c8 -33 41 -128 91 -133c5 -1 9 0 12 0c67 6 89 123 98 170c16 80 29 451 -113 451h-8zM291 887c0 -13 -11 -23 -24 -23
c-6 0 -8 0 -14 5l-37 28l-51 32c-6 4 -5 5 -5 12c0 13 15 25 28 25c0 0 7 -3 9 -4l65 -42c12 -8 29 -17 29 -33z" />
    <glyph glyph-name="Oacute" unicode="&#xd3;" horiz-adv-x="450" 
d="M83 192c-13 60 -117 589 134 589c222 0 252 -711 32 -730c-4 0 -8 -1 -12 -1c-84 0 -130 50 -154 142zM211 726c-151 -14 -99 -415 -80 -488c8 -33 41 -128 91 -133c5 -1 9 0 12 0c67 6 89 123 98 170c16 80 29 451 -113 451h-8zM159 887c0 16 17 25 29 33l65 42
c2 1 9 4 9 4c13 0 28 -12 28 -25c0 -7 1 -8 -5 -12l-51 -32l-37 -28c-6 -5 -8 -5 -14 -5c-13 0 -24 10 -24 23z" />
    <glyph glyph-name="Ocircumflex" unicode="&#xd4;" horiz-adv-x="450" 
d="M83 192c-13 60 -117 589 134 589c222 0 252 -711 32 -730c-4 0 -8 -1 -12 -1c-84 0 -130 50 -154 142zM211 726c-151 -14 -99 -415 -80 -488c8 -33 41 -128 91 -133c5 -1 9 0 12 0c67 6 89 123 98 170c16 80 29 451 -113 451h-8zM82 846c0 2 0 7 1 8c16 30 53 62 75 90
c7 8 17 34 30 34c19 0 31 -21 40 -34c4 -5 35 -47 38 -52c4 -5 31 -34 33 -38c4 -4 5 -9 5 -15c0 -8 -5 -14 -13 -14c-6 0 -10 2 -16 5c-29 30 -52 65 -79 95c-19 -19 -73 -101 -92 -101c-12 0 -22 9 -22 22z" />
    <glyph glyph-name="Otilde" unicode="&#xd5;" horiz-adv-x="450" 
d="M83 192c-13 60 -117 589 134 589c222 0 252 -711 32 -730c-4 0 -8 -1 -12 -1c-84 0 -130 50 -154 142zM211 726c-151 -14 -99 -415 -80 -488c8 -33 41 -128 91 -133c5 -1 9 0 12 0c67 6 89 123 98 170c16 80 29 451 -113 451h-8zM150 897c-29 0 -29 -51 -48 -51
c-11 0 -30 7 -30 20c0 34 35 73 69 73c56 0 82 -61 97 -61c49 0 19 48 48 48c21 0 27 -15 27 -34c0 -36 -24 -56 -62 -56c-60 0 -70 61 -101 61z" />
    <glyph glyph-name="Odieresis" unicode="&#xd6;" horiz-adv-x="450" 
d="M83 192c-13 60 -117 589 134 589c222 0 252 -711 32 -730c-4 0 -8 -1 -12 -1c-84 0 -130 50 -154 142zM211 726c-151 -14 -99 -415 -80 -488c8 -33 41 -128 91 -133c5 -1 9 0 12 0c67 6 89 123 98 170c16 80 29 451 -113 451h-8zM75 876c0 13 22 30 34 30
c27 0 45 -21 45 -49c0 -22 -21 -25 -40 -25c-25 0 -39 16 -39 44zM207 886c0 13 19 30 29 30c23 0 38 -21 38 -50c0 -23 -17 -26 -34 -26c-21 0 -33 17 -33 46z" />
    <glyph glyph-name="Oslash" unicode="&#xd8;" horiz-adv-x="450" 
d="M91 17c0 1 1 10 1 11c8 27 16 55 25 83c-15 21 -26 49 -34 81c-13 60 -117 589 134 589c29 0 55 -13 78 -35c3 15 7 30 11 45c1 3 3 27 6 30c0 0 9 1 13 1c23 0 33 -12 33 -35c0 -33 -10 -66 -21 -99c103 -193 82 -623 -88 -637c-4 0 -8 -1 -12 -1c-32 0 -58 7 -80 20
l-19 -59c-2 -8 -7 -17 -17 -17c-21 0 -30 5 -30 23zM211 726c-151 -14 -99 -415 -80 -488c2 -10 6 -24 12 -40c49 164 96 330 138 495c-16 21 -37 33 -62 33h-8zM332 275c10 53 19 233 -17 349l-3 -12c-45 -157 -88 -319 -135 -477c13 -16 28 -29 45 -30c5 -1 9 0 12 0
c67 6 89 123 98 170z" />
    <glyph glyph-name="Ugrave" unicode="&#xd9;" horiz-adv-x="445" 
d="M53 464c3 108 3 216 14 324c6 6 16 12 25 12c36 0 34 -38 33 -64v-6c-2 -100 -14 -198 -16 -298c-2 -68 -34 -342 73 -342c49 0 82 96 89 127c37 175 60 359 60 535v22c0 15 20 20 33 20c17 0 31 -15 31 -30l-1 -15c-10 -154 -22 -296 -49 -449l-2 -13
c-1 -2 -1 -6 -3 -10c-12 -72 -41 -237 -152 -237c-127 0 -137 136 -137 223v18c0 6 1 135 2 183zM288 887c0 -13 -11 -23 -24 -23c-6 0 -8 0 -14 5l-37 28l-51 32c-6 4 -5 5 -5 12c0 13 15 25 28 25c0 0 7 -3 9 -4l65 -42c12 -8 29 -17 29 -33z" />
    <glyph glyph-name="Uacute" unicode="&#xda;" horiz-adv-x="445" 
d="M53 464c3 108 3 216 14 324c6 6 16 12 25 12c36 0 34 -38 33 -64v-6c-2 -100 -14 -198 -16 -298c-2 -68 -34 -342 73 -342c49 0 82 96 89 127c37 175 60 359 60 535v22c0 15 20 20 33 20c17 0 31 -15 31 -30l-1 -15c-10 -154 -22 -296 -49 -449l-2 -13
c-1 -2 -1 -6 -3 -10c-12 -72 -41 -237 -152 -237c-127 0 -137 136 -137 223v18c0 6 1 135 2 183zM156 887c0 16 17 25 29 33l65 42c2 1 9 4 9 4c13 0 28 -12 28 -25c0 -7 1 -8 -5 -12l-51 -32l-37 -28c-6 -5 -8 -5 -14 -5c-13 0 -24 10 -24 23z" />
    <glyph glyph-name="Ucircumflex" unicode="&#xdb;" horiz-adv-x="445" 
d="M53 464c3 108 3 216 14 324c6 6 16 12 25 12c36 0 34 -38 33 -64v-6c-2 -100 -14 -198 -16 -298c-2 -68 -34 -342 73 -342c49 0 82 96 89 127c37 175 60 359 60 535v22c0 15 20 20 33 20c17 0 31 -15 31 -30l-1 -15c-10 -154 -22 -296 -49 -449l-2 -13
c-1 -2 -1 -6 -3 -10c-12 -72 -41 -237 -152 -237c-127 0 -137 136 -137 223v18c0 6 1 135 2 183zM111 880c0 2 0 7 1 8c16 30 53 62 75 90c7 8 17 34 30 34c19 0 31 -21 40 -34c4 -5 35 -47 38 -52c4 -5 31 -34 33 -38c4 -4 5 -9 5 -15c0 -8 -5 -14 -13 -14
c-6 0 -10 2 -16 5c-29 30 -52 65 -79 95c-19 -19 -73 -101 -92 -101c-12 0 -22 9 -22 22z" />
    <glyph glyph-name="Udieresis" unicode="&#xdc;" horiz-adv-x="445" 
d="M53 464c3 108 3 216 14 324c6 6 16 12 25 12c36 0 34 -38 33 -64v-6c-2 -100 -14 -198 -16 -298c-2 -68 -34 -342 73 -342c49 0 82 96 89 127c37 175 60 359 60 535v22c0 15 20 20 33 20c17 0 31 -15 31 -30l-1 -15c-10 -154 -22 -296 -49 -449l-2 -13
c-1 -2 -1 -6 -3 -10c-12 -72 -41 -237 -152 -237c-127 0 -137 136 -137 223v18c0 6 1 135 2 183zM123 900c0 13 22 30 34 30c27 0 45 -21 45 -49c0 -22 -21 -25 -40 -25c-25 0 -39 16 -39 44zM255 910c0 13 19 30 29 30c23 0 38 -21 38 -50c0 -23 -17 -26 -34 -26
c-21 0 -33 17 -33 46z" />
    <glyph glyph-name="Yacute" unicode="&#xdd;" horiz-adv-x="392" 
d="M221 25c-14 126 -16 308 -45 419c-18 36 -103 207 -119 243c-26 57 30 65 40 37l114 -240l67 265c4 28 64 26 64 -7v-4l-99 -304l35 -406c0 -16 -13 -22 -27 -22s-27 5 -30 19zM104 835c0 16 17 25 29 33l65 42c2 1 9 4 9 4c13 0 28 -12 28 -25c0 -7 1 -8 -5 -12l-51 -32
l-37 -28c-6 -5 -8 -5 -14 -5c-13 0 -24 10 -24 23z" />
    <glyph glyph-name="Thorn" unicode="&#xde;" horiz-adv-x="339" 
d="M92 -10l-42 715v74c5 6 14 12 22 12c11 0 25 -13 27 -24c1 -8 5 -50 5 -59v-113c2 -43 30 -28 65 -36c93 -19 120 -116 120 -199c0 -77 -32 -137 -96 -180c-17 -12 -41 -12 -59 -24v-38c0 -32 6 -61 6 -93c0 -20 -2 -47 -30 -47c0 0 -18 7 -18 12zM116 467
c0 -84 0 -168 12 -252c2 0 10 -1 11 -1c76 0 96 103 96 159s-23 139 -93 139c-10 0 -15 0 -26 -6v-39z" />
    <glyph glyph-name="germandbls" unicode="&#xdf;" horiz-adv-x="480" 
d="M50 20v89c1 36 6 326 6 361v36c2 40 11 156 12 166c10 82 46 155 139 155c53 0 99 -41 99 -95c0 -65 -60 -117 -60 -185c0 -25 14 -46 29 -65c74 -83 155 -157 155 -274c0 -83 -55 -147 -140 -147c-22 0 -80 12 -80 45c0 17 21 29 36 27c21 -4 24 -24 48 -24
c61 0 82 57 82 109c0 102 -95 182 -154 252c-20 24 -30 52 -30 84c0 68 55 120 55 183c0 24 -12 48 -40 48h-3c-97 -42 -93 -157 -95 -249c-1 -32 -5 -294 -5 -326v-66c0 -37 5 -73 5 -109c0 -20 -21 -27 -36 -27c-10 0 -18 -1 -23 12z" />
    <glyph glyph-name="agrave" unicode="&#xe0;" horiz-adv-x="399" 
d="M273 218h-148l-6 -6l-17 -113c-2 -15 -1 -58 -30 -58c-13 0 -22 26 -22 36c104 725 105 727 105 727c5 19 12 47 37 47c11 0 25 -5 31 -15l8 -21c58 -229 85 -464 112 -700l6 -65c0 -1 -1 -1 -1 -2c-7 -19 -11 -27 -30 -27h-3c-6 0 -16 0 -17 7zM198 744l-58 -464l125 -3
zM259 899c0 -13 -11 -23 -24 -23c-6 0 -8 0 -14 5l-37 28l-51 32c-6 4 -5 5 -5 12c0 13 15 25 28 25c0 0 7 -3 9 -4l65 -42c12 -8 29 -17 29 -33z" />
    <glyph glyph-name="aacute" unicode="&#xe1;" horiz-adv-x="399" 
d="M273 218h-148l-6 -6l-17 -113c-2 -15 -1 -58 -30 -58c-13 0 -22 26 -22 36c104 725 105 727 105 727c5 19 12 47 37 47c11 0 25 -5 31 -15l8 -21c58 -229 85 -464 112 -700l6 -65c0 -1 -1 -1 -1 -2c-7 -19 -11 -27 -30 -27h-3c-6 0 -16 0 -17 7zM198 744l-58 -464l125 -3
zM113 929c0 16 17 25 29 33l65 42c2 1 9 4 9 4c13 0 28 -12 28 -25c0 -7 1 -8 -5 -12l-51 -32l-37 -28c-6 -5 -8 -5 -14 -5c-13 0 -24 10 -24 23z" />
    <glyph glyph-name="acircumflex" unicode="&#xe2;" horiz-adv-x="399" 
d="M273 218h-148l-6 -6l-17 -113c-2 -15 -1 -58 -30 -58c-13 0 -22 26 -22 36c104 725 105 727 105 727c5 19 12 47 37 47c11 0 25 -5 31 -15l8 -21c58 -229 85 -464 112 -700l6 -65c0 -1 -1 -1 -1 -2c-7 -19 -11 -27 -30 -27h-3c-6 0 -16 0 -17 7zM198 744l-58 -464l125 -3
zM84 888c0 2 0 6 1 7c14 29 48 60 68 87c6 8 15 32 27 32c17 0 27 -20 36 -32l34 -50c3 -5 28 -33 30 -37c3 -4 4 -8 4 -14c0 -8 -4 -14 -12 -14c-5 0 -9 2 -14 5c-26 29 -47 63 -71 92c-17 -19 -66 -98 -83 -98c-11 0 -20 9 -20 22z" />
    <glyph glyph-name="atilde" unicode="&#xe3;" horiz-adv-x="399" 
d="M273 218h-148l-6 -6l-17 -113c-2 -15 -1 -58 -30 -58c-13 0 -22 26 -22 36c104 725 105 727 105 727c5 19 12 47 37 47c11 0 25 -5 31 -15l8 -21c58 -229 85 -464 112 -700l6 -65c0 -1 -1 -1 -1 -2c-7 -19 -11 -27 -30 -27h-3c-6 0 -16 0 -17 7zM198 744l-58 -464l125 -3
zM139 955c-29 0 -29 -51 -48 -51c-11 0 -30 7 -30 20c0 34 35 73 69 73c56 0 82 -61 97 -61c49 0 19 48 48 48c21 0 27 -15 27 -34c0 -36 -24 -56 -62 -56c-60 0 -70 61 -101 61z" />
    <glyph glyph-name="adieresis" unicode="&#xe4;" horiz-adv-x="399" 
d="M273 218h-148l-6 -6l-17 -113c-2 -15 -1 -58 -30 -58c-13 0 -22 26 -22 36c104 725 105 727 105 727c5 19 12 47 37 47c11 0 25 -5 31 -15l8 -21c58 -229 85 -464 112 -700l6 -65c0 -1 -1 -1 -1 -2c-7 -19 -11 -27 -30 -27h-3c-6 0 -16 0 -17 7zM198 744l-58 -464l125 -3
zM100 902c0 13 22 30 34 30c27 0 45 -21 45 -49c0 -22 -21 -25 -40 -25c-25 0 -39 16 -39 44zM232 912c0 13 19 30 29 30c23 0 38 -21 38 -50c0 -23 -17 -26 -34 -26c-21 0 -33 17 -33 46z" />
    <glyph glyph-name="aring" unicode="&#xe5;" horiz-adv-x="399" 
d="M113 891c0 62 31 103 96 103c44 0 76 -32 76 -77c0 -44 -17 -84 -56 -96l2 -6c58 -229 85 -464 112 -700l6 -65c0 -1 -1 -1 -1 -2c-7 -19 -11 -27 -30 -27h-3c-6 0 -16 0 -17 7l-25 190h-148l-6 -6l-17 -113c-2 -15 -1 -58 -30 -58c-13 0 -22 26 -22 36
c104 725 105 727 105 727c1 6 3 13 6 20c-28 10 -48 32 -48 67zM198 744l-58 -464l125 -3zM151 891c0 -22 17 -33 38 -33c35 0 55 23 55 57c0 19 -7 41 -30 41c-37 0 -63 -29 -63 -65z" />
    <glyph glyph-name="ae" unicode="&#xe6;" horiz-adv-x="575" 
d="M273 218h-148l-6 -6l-17 -113c-2 -15 -1 -58 -30 -58c-13 0 -22 26 -22 36c104 725 105 727 105 727c5 19 12 47 37 47c6 0 14 -2 225 -13c6 0 26 -15 27 -20c1 -2 1 -3 1 -5c0 -19 -25 -29 -41 -29h-2l-165 8c41 -169 66 -341 87 -513l149 15c41 0 41 -51 -13 -58
l-130 -18c4 -38 10 -66 13 -103l5 -54l5 -1c9 -1 43 -1 52 -1c67 0 116 23 119 -23c2 -32 -195 -31 -220 -15c-3 1 -6 3 -6 7zM198 744l-58 -464l125 -3z" />
    <glyph glyph-name="ccedilla" unicode="&#xe7;" horiz-adv-x="380" 
d="M137 -59c0 9 3 22 14 22c29 0 24 -24 54 -24c20 0 44 5 44 31c0 54 -93 -12 -93 102v25c-112 92 -125 306 -89 457c24 104 86 243 216 243c21 0 47 -14 47 -37c0 -35 -58 -28 -72 -28h-6c-97 0 -140 -201 -140 -314c0 -128 8 -219 96 -292c43 -36 109 1 124 -26
c20 -35 -17 -47 -49 -47c-31 0 -59 7 -83 18v-25c109 -10 126 -169 -5 -148c-12 0 -58 28 -58 43z" />
    <glyph glyph-name="egrave" unicode="&#xe8;" horiz-adv-x="334" 
d="M61 32l-11 698c0 18 17 35 35 35h158c6 0 26 -15 27 -20c1 -2 1 -3 1 -5c0 -20 -27 -29 -43 -29h-120l5 -332l108 16h5c47 0 29 -46 -11 -52l-100 -15l-3 -261c9 -1 43 -1 52 -1c67 0 116 23 119 -23c2 -34 -222 -30 -222 -11zM203 889c0 -13 -11 -23 -24 -23
c-6 0 -8 0 -14 5l-37 28l-51 32c-6 4 -5 5 -5 12c0 13 15 25 28 25c0 0 7 -3 9 -4l65 -42c12 -8 29 -17 29 -33z" />
    <glyph glyph-name="eacute" unicode="&#xe9;" horiz-adv-x="334" 
d="M61 32l-11 698c0 18 17 35 35 35h158c6 0 26 -15 27 -20c1 -2 1 -3 1 -5c0 -20 -27 -29 -43 -29h-120l5 -332l108 16h5c47 0 29 -46 -11 -52l-100 -15l-3 -261c9 -1 43 -1 52 -1c67 0 116 23 119 -23c2 -34 -222 -30 -222 -11zM101 889c0 16 17 25 29 33l65 42
c2 1 9 4 9 4c13 0 28 -12 28 -25c0 -7 1 -8 -5 -12l-51 -32l-37 -28c-6 -5 -8 -5 -14 -5c-13 0 -24 10 -24 23z" />
    <glyph glyph-name="ecircumflex" unicode="&#xea;" horiz-adv-x="334" 
d="M61 32l-11 698c0 18 17 35 35 35h158c6 0 26 -15 27 -20c1 -2 1 -3 1 -5c0 -20 -27 -29 -43 -29h-120l5 -332l108 16h5c47 0 29 -46 -11 -52l-100 -15l-3 -261c9 -1 43 -1 52 -1c67 0 116 23 119 -23c2 -34 -222 -30 -222 -11zM32 852c0 2 0 7 1 8c16 30 53 62 75 90
c7 8 17 34 30 34c19 0 31 -21 40 -34c4 -5 35 -47 38 -52c4 -5 31 -34 33 -38c4 -4 5 -9 5 -15c0 -8 -5 -14 -13 -14c-6 0 -10 2 -16 5c-29 30 -52 65 -79 95c-19 -19 -73 -101 -92 -101c-12 0 -22 9 -22 22z" />
    <glyph glyph-name="edieresis" unicode="&#xeb;" horiz-adv-x="334" 
d="M61 32l-11 698c0 18 17 35 35 35h158c6 0 26 -15 27 -20c1 -2 1 -3 1 -5c0 -20 -27 -29 -43 -29h-120l5 -332l108 16h5c47 0 29 -46 -11 -52l-100 -15l-3 -261c9 -1 43 -1 52 -1c67 0 116 23 119 -23c2 -34 -222 -30 -222 -11zM67 902c0 13 22 30 34 30
c27 0 45 -21 45 -49c0 -22 -21 -25 -40 -25c-25 0 -39 16 -39 44zM199 912c0 13 19 30 29 30c23 0 38 -21 38 -50c0 -23 -17 -26 -34 -26c-21 0 -33 17 -33 46z" />
    <glyph glyph-name="igrave" unicode="&#xec;" horiz-adv-x="189" 
d="M50 19l27 742c7 20 12 21 33 21c29 0 29 -13 29 -42c0 -3 -1 -16 -1 -18l-30 -684c-2 -44 -58 -48 -58 -19zM161 889c0 -13 -11 -23 -24 -23c-6 0 -8 0 -14 5l-37 28l-51 32c-6 4 -5 5 -5 12c0 13 15 25 28 25c0 0 7 -3 9 -4l65 -42c12 -8 29 -17 29 -33z" />
    <glyph glyph-name="iacute" unicode="&#xed;" horiz-adv-x="189" 
d="M50 19l27 742c7 20 12 21 33 21c29 0 29 -13 29 -42c0 -3 -1 -16 -1 -18l-30 -684c-2 -44 -58 -48 -58 -19zM29 889c0 16 17 25 29 33l65 42c2 1 9 4 9 4c13 0 28 -12 28 -25c0 -7 1 -8 -5 -12l-51 -32l-37 -28c-6 -5 -8 -5 -14 -5c-13 0 -24 10 -24 23z" />
    <glyph glyph-name="icircumflex" unicode="&#xee;" horiz-adv-x="189" 
d="M50 19l27 742c7 20 12 21 33 21c29 0 29 -13 29 -42c0 -3 -1 -16 -1 -18l-30 -684c-2 -44 -58 -48 -58 -19zM-16 882c0 2 0 7 1 8c16 30 53 62 75 90c7 8 17 34 30 34c19 0 31 -21 40 -34c4 -5 35 -47 38 -52c4 -5 31 -34 33 -38c4 -4 5 -9 5 -15c0 -8 -5 -14 -13 -14
c-6 0 -10 2 -16 5c-29 30 -52 65 -79 95c-19 -19 -73 -101 -92 -101c-12 0 -22 9 -22 22z" />
    <glyph glyph-name="idieresis" unicode="&#xef;" horiz-adv-x="189" 
d="M50 19l27 742c7 20 12 21 33 21c29 0 29 -13 29 -42c0 -3 -1 -16 -1 -18l-30 -684c-2 -44 -58 -48 -58 -19zM-5 902c0 13 22 30 34 30c27 0 45 -21 45 -49c0 -22 -21 -25 -40 -25c-25 0 -39 16 -39 44zM127 912c0 13 19 30 29 30c23 0 38 -21 38 -50
c0 -23 -17 -26 -34 -26c-21 0 -33 17 -33 46z" />
    <glyph glyph-name="eth" unicode="&#xf0;" horiz-adv-x="469" 
d="M76 377c-35 4 -33 48 2 50h70c0 142 -1 296 -1 347v4c0 22 8 45 29 54h9c40 0 82 -9 112 -36c107 -96 127 -268 121 -404c-8 -193 -53 -377 -218 -397c-32 -4 -53 1 -53 38v170c0 27 1 102 1 174h-72zM211 768c-2 -49 -6 -250 -7 -339h52c29 -9 28 -44 -2 -50h-50
c0 -91 -2 -230 0 -326c124 19 158 217 158 327c0 79 -5 388 -144 388h-7z" />
    <glyph glyph-name="ntilde" unicode="&#xf1;" horiz-adv-x="469" 
d="M50 32l12 704c-2 40 53 64 74 6l204 -553c1 44 9 290 15 388c3 60 -1 121 12 177c0 11 11 11 26 11c24 -1 26 -2 25 -24c-3 -104 -18 -208 -22 -312c-2 -58 -12 -335 -12 -393c-7 -21 -38 -9 -46 8c-10 21 -18 41 -230 608l-7 -614c0 -30 -51 -27 -51 -6zM194 877
c-29 0 -29 -51 -48 -51c-11 0 -30 7 -30 20c0 34 35 73 69 73c56 0 82 -61 97 -61c49 0 19 48 48 48c21 0 27 -15 27 -34c0 -36 -24 -56 -62 -56c-60 0 -70 61 -101 61z" />
    <glyph glyph-name="ograve" unicode="&#xf2;" horiz-adv-x="437" 
d="M50 448c0 127 9 360 186 360c179 -20 153 -446 143 -579c-7 -73 -44 -200 -144 -200c-177 0 -185 302 -185 419zM108 540c-1 -32 -1 -60 -1 -88c0 -293 54 -373 125 -373c98 0 99 254 99 317v4c0 77 -21 357 -116 357c-75 0 -107 -167 -107 -217zM284 889
c0 -13 -11 -23 -24 -23c-6 0 -8 0 -14 5l-37 28l-51 32c-6 4 -5 5 -5 12c0 13 15 25 28 25c0 0 7 -3 9 -4l65 -42c12 -8 29 -17 29 -33z" />
    <glyph glyph-name="oacute" unicode="&#xf3;" horiz-adv-x="437" 
d="M50 448c0 127 9 360 186 360c179 -20 153 -446 143 -579c-7 -73 -44 -200 -144 -200c-177 0 -185 302 -185 419zM108 540c-1 -32 -1 -60 -1 -88c0 -293 54 -373 125 -373c98 0 99 254 99 317v4c0 77 -21 357 -116 357c-75 0 -107 -167 -107 -217zM152 889
c0 16 17 25 29 33l65 42c2 1 9 4 9 4c13 0 28 -12 28 -25c0 -7 1 -8 -5 -12l-51 -32l-37 -28c-6 -5 -8 -5 -14 -5c-13 0 -24 10 -24 23z" />
    <glyph glyph-name="ocircumflex" unicode="&#xf4;" horiz-adv-x="437" 
d="M50 448c0 127 9 360 186 360c179 -20 153 -446 143 -579c-7 -73 -44 -200 -144 -200c-177 0 -185 302 -185 419zM108 540c-1 -32 -1 -60 -1 -88c0 -293 54 -373 125 -373c98 0 99 254 99 317v4c0 77 -21 357 -116 357c-75 0 -107 -167 -107 -217zM91 864c0 2 0 7 1 8
c16 30 53 62 75 90c7 8 17 34 30 34c19 0 31 -21 40 -34c4 -5 35 -47 38 -52c4 -5 31 -34 33 -38c4 -4 5 -9 5 -15c0 -8 -5 -14 -13 -14c-6 0 -10 2 -16 5c-29 30 -52 65 -79 95c-19 -19 -73 -101 -92 -101c-12 0 -22 9 -22 22z" />
    <glyph glyph-name="otilde" unicode="&#xf5;" horiz-adv-x="437" 
d="M50 448c0 127 9 360 186 360c179 -20 153 -446 143 -579c-7 -73 -44 -200 -144 -200c-177 0 -185 302 -185 419zM108 540c-1 -32 -1 -60 -1 -88c0 -293 54 -373 125 -373c98 0 99 254 99 317v4c0 77 -21 357 -116 357c-75 0 -107 -167 -107 -217zM176 921
c-29 0 -29 -51 -48 -51c-11 0 -30 7 -30 20c0 34 35 73 69 73c56 0 82 -61 97 -61c49 0 19 48 48 48c21 0 27 -15 27 -34c0 -36 -24 -56 -62 -56c-60 0 -70 61 -101 61z" />
    <glyph glyph-name="odieresis" unicode="&#xf6;" horiz-adv-x="437" 
d="M50 448c0 127 9 360 186 360c179 -20 153 -446 143 -579c-7 -73 -44 -200 -144 -200c-177 0 -185 302 -185 419zM108 540c-1 -32 -1 -60 -1 -88c0 -293 54 -373 125 -373c98 0 99 254 99 317v4c0 77 -21 357 -116 357c-75 0 -107 -167 -107 -217zM119 902
c0 13 22 30 34 30c27 0 45 -21 45 -49c0 -22 -21 -25 -40 -25c-25 0 -39 16 -39 44zM251 912c0 13 19 30 29 30c23 0 38 -21 38 -50c0 -23 -17 -26 -34 -26c-21 0 -33 17 -33 46z" />
    <glyph glyph-name="oslash" unicode="&#xf8;" horiz-adv-x="437" 
d="M85 17c0 1 1 10 1 11l24 80c-57 98 -60 261 -60 340c0 127 9 360 186 360c24 -3 44 -13 61 -28l3 11c1 3 3 27 6 30c0 0 9 1 13 1c23 0 33 -12 33 -35c0 -24 -5 -47 -12 -70c62 -138 46 -391 39 -488c-7 -73 -44 -200 -144 -200c-35 0 -64 12 -87 32l-16 -50
c-2 -8 -7 -17 -17 -17c-21 0 -30 5 -30 23zM108 540c-1 -32 -1 -60 -1 -88c0 -124 9 -210 26 -268c51 172 101 345 145 518c-16 33 -37 55 -63 55c-75 0 -107 -167 -107 -217zM331 400c0 40 -6 134 -24 215c-1 -1 -1 -2 -1 -3c-47 -164 -91 -333 -141 -498
c19 -25 42 -35 67 -35c98 0 99 254 99 317v4z" />
    <glyph glyph-name="ugrave" unicode="&#xf9;" horiz-adv-x="376" 
d="M326 247c-2 -87 -3 -186 -107 -186c-7 0 -15 1 -24 2c-123 15 -132 319 -142 669l-2 49v5c0 22 53 21 60 1c17 -29 -27 -680 110 -680c35 0 46 57 47 84c3 124 1 403 -4 596c5 16 11 18 29 18c16 0 30 -3 31 -20c5 -176 -3 -354 2 -538zM254 889c0 -13 -11 -23 -24 -23
c-6 0 -8 0 -14 5l-37 28l-51 32c-6 4 -5 5 -5 12c0 13 15 25 28 25c0 0 7 -3 9 -4l65 -42c12 -8 29 -17 29 -33z" />
    <glyph glyph-name="uacute" unicode="&#xfa;" horiz-adv-x="376" 
d="M326 247c-2 -87 -3 -186 -107 -186c-7 0 -15 1 -24 2c-123 15 -132 319 -142 669l-2 49v5c0 22 53 21 60 1c17 -29 -27 -680 110 -680c35 0 46 57 47 84c3 124 1 403 -4 596c5 16 11 18 29 18c16 0 30 -3 31 -20c5 -176 -3 -354 2 -538zM122 889c0 16 17 25 29 33l65 42
c2 1 9 4 9 4c13 0 28 -12 28 -25c0 -7 1 -8 -5 -12l-51 -32l-37 -28c-6 -5 -8 -5 -14 -5c-13 0 -24 10 -24 23z" />
    <glyph glyph-name="ucircumflex" unicode="&#xfb;" horiz-adv-x="376" 
d="M326 247c-2 -87 -3 -186 -107 -186c-7 0 -15 1 -24 2c-123 15 -132 319 -142 669l-2 49v5c0 22 53 21 60 1c17 -29 -27 -680 110 -680c35 0 46 57 47 84c3 124 1 403 -4 596c5 16 11 18 29 18c16 0 30 -3 31 -20c5 -176 -3 -354 2 -538zM77 882c0 2 0 7 1 8
c16 30 53 62 75 90c7 8 17 34 30 34c19 0 31 -21 40 -34c4 -5 35 -47 38 -52c4 -5 31 -34 33 -38c4 -4 5 -9 5 -15c0 -8 -5 -14 -13 -14c-6 0 -10 2 -16 5c-29 30 -52 65 -79 95c-19 -19 -73 -101 -92 -101c-12 0 -22 9 -22 22z" />
    <glyph glyph-name="udieresis" unicode="&#xfc;" horiz-adv-x="376" 
d="M326 247c-2 -87 -3 -186 -107 -186c-7 0 -15 1 -24 2c-123 15 -132 319 -142 669l-2 49v5c0 22 53 21 60 1c17 -29 -27 -680 110 -680c35 0 46 57 47 84c3 124 1 403 -4 596c5 16 11 18 29 18c16 0 30 -3 31 -20c5 -176 -3 -354 2 -538zM88 902c0 13 22 30 34 30
c27 0 45 -21 45 -49c0 -22 -21 -25 -40 -25c-25 0 -39 16 -39 44zM220 912c0 13 19 30 29 30c23 0 38 -21 38 -50c0 -23 -17 -26 -34 -26c-21 0 -33 17 -33 46z" />
    <glyph glyph-name="yacute" unicode="&#xfd;" horiz-adv-x="435" 
d="M161 -5c0 4 1 8 1 15c3 75 15 334 15 374l-85 231c-4 9 -32 82 -35 91c-5 11 -7 16 -7 24c1 11 11 17 24 17c17 0 34 -5 42 -21c31 -89 53 -191 91 -276c10 8 106 231 103 232c9 23 9 58 44 58c16 -1 30 -3 30 -19v-7c-41 -113 -116 -220 -146 -334l-18 -381
c-1 -16 -18 -19 -34 -18h-2c-9 1 -20 2 -23 14zM129 825c0 16 17 25 29 33l65 42c2 1 9 4 9 4c13 0 28 -12 28 -25c0 -7 1 -8 -5 -12l-51 -32l-37 -28c-6 -5 -8 -5 -14 -5c-13 0 -24 10 -24 23z" />
    <glyph glyph-name="thorn" unicode="&#xfe;" horiz-adv-x="338" 
d="M86 -16c-17 245 -15 461 -35 718c-1 2 -1 24 -1 32c0 5 0 28 1 33c1 9 17 6 20 6c33 0 31 -31 33 -59c2 -18 5 -107 6 -125c96 -11 178 -102 178 -201c0 -122 -37 -228 -160 -273v-21c0 -30 6 -59 6 -88c0 -13 -8 -28 -24 -28c-9 0 -15 2 -24 6zM114 531
c0 -118 2 -239 7 -357h4c9 0 21 9 26 12c66 37 84 95 84 169s-32 176 -121 176z" />
    <glyph glyph-name="ydieresis" unicode="&#xff;" horiz-adv-x="435" 
d="M161 -5c0 4 1 8 1 15c3 75 15 334 15 374l-85 231c-4 9 -32 82 -35 91c-5 11 -7 16 -7 24c1 11 11 17 24 17c17 0 34 -5 42 -21c31 -89 53 -191 91 -276c10 8 106 231 103 232c9 23 9 58 44 58c16 -1 30 -3 30 -19v-7c-41 -113 -116 -220 -146 -334l-18 -381
c-1 -16 -18 -19 -34 -18h-2c-9 1 -20 2 -23 14zM122 848c0 13 22 30 34 30c27 0 45 -21 45 -49c0 -22 -21 -25 -40 -25c-25 0 -39 16 -39 44zM254 858c0 13 19 30 29 30c23 0 38 -21 38 -50c0 -23 -17 -26 -34 -26c-21 0 -33 17 -33 46z" />
    <glyph glyph-name="dotlessi" unicode="&#x131;" horiz-adv-x="189" 
d="M50 19l27 742c7 20 12 21 33 21c29 0 29 -13 29 -42c0 -3 -1 -16 -1 -18l-30 -684c-2 -44 -58 -48 -58 -19z" />
    <glyph glyph-name="OE" unicode="&#x152;" horiz-adv-x="511" 
d="M217 781c16 0 32 -5 46 -12c140 10 157 -1 157 -22c0 -7 -5 -22 -12 -25h-109c-7 0 -7 -5 -7 -8c0 -106 10 -184 16 -293c15 -4 99 -1 116 -1c34 -1 57 -59 11 -59h-127l2 -234c24 -6 151 19 151 -25c0 -12 -6 -24 -19 -26h-5c-24 -2 -89 -8 -134 -4
c-16 -12 -34 -20 -54 -21c-4 0 -8 -1 -12 -1c-84 0 -130 50 -154 142c-13 60 -117 589 134 589zM211 726c-151 -14 -99 -415 -80 -488c8 -33 41 -128 91 -133c5 -1 9 0 12 0c8 0 15 3 22 7v226c0 143 -14 235 -14 378v6c-7 3 -15 4 -23 4h-8z" />
    <glyph glyph-name="oe" unicode="&#x153;" horiz-adv-x="515" 
d="M236 808c11 -2 22 -5 32 -9h156c6 0 26 -15 27 -20c1 -2 1 -3 1 -5c0 -20 -27 -29 -43 -29h-120l5 -332l108 16h5c47 0 29 -46 -11 -52l-100 -15l-3 -261c9 -1 43 -1 52 -1c67 0 116 23 119 -23c1 -23 -96 -29 -162 -25c-18 -14 -41 -23 -67 -23
c-177 0 -185 302 -185 419c0 127 9 360 186 360zM232 79h10l-11 675c-5 2 -11 3 -16 3c-75 0 -107 -167 -107 -217c-1 -32 -1 -60 -1 -88c0 -293 54 -373 125 -373z" />
    <glyph glyph-name="Ydieresis" unicode="&#x178;" horiz-adv-x="392" 
d="M221 25c-14 126 -16 308 -45 419c-18 36 -103 207 -119 243c-26 57 30 65 40 37l114 -240l67 265c4 28 64 26 64 -7v-4l-99 -304l35 -406c0 -16 -13 -22 -27 -22s-27 5 -30 19zM68 850c0 13 22 30 34 30c27 0 45 -21 45 -49c0 -22 -21 -25 -40 -25c-25 0 -39 16 -39 44z
M200 860c0 13 19 30 29 30c23 0 38 -21 38 -50c0 -23 -17 -26 -34 -26c-21 0 -33 17 -33 46z" />
    <glyph glyph-name="florin" unicode="&#x192;" horiz-adv-x="320" 
d="M51 705c0 53 33 84 115 89c25 0 102 11 104 -30c0 -14 -16 -18 -27 -19h-9c-38 2 -128 7 -128 -43v-8c-2 -64 2 -144 16 -202c13 -2 39 0 56 1h7c16 1 74 24 74 -12c0 -47 -104 -34 -127 -43c-8 -109 21 -304 22 -426v-4c0 -43 -46 -34 -52 -4c-12 430 -51 552 -51 701z
" />
    <glyph glyph-name="quoteleft" unicode="&#x2018;" horiz-adv-x="161" 
d="M99 787c7 -115 12 -236 12 -352c0 -16 -8 -23 -24 -23c-9 0 -37 5 -37 19v338c0 12 10 31 24 31c11 0 16 -3 25 -13z" />
    <glyph glyph-name="quoteright" unicode="&#x2019;" horiz-adv-x="161" 
d="M62 425c-7 115 -12 236 -12 352c0 16 8 23 24 23c9 0 37 -5 37 -19v-338c0 -12 -10 -31 -24 -31c-11 0 -16 3 -25 13z" />
    <glyph glyph-name="quotesinglbase" unicode="&#x201a;" horiz-adv-x="161" 
d="M62 -161c-7 115 -12 236 -12 352c0 16 8 23 24 23c9 0 37 -5 37 -19v-338c0 -12 -10 -31 -24 -31c-11 0 -16 3 -25 13z" />
    <glyph glyph-name="quotedblleft" unicode="&#x201c;" horiz-adv-x="276" 
d="M99 787c7 -115 12 -236 12 -352c0 -16 -8 -23 -24 -23c-9 0 -37 5 -37 19v338c0 12 10 31 24 31c11 0 16 -3 25 -13zM215 751c7 -101 11 -207 11 -309c0 -14 -7 -20 -22 -20c-9 0 -35 4 -35 17v296c0 10 10 27 23 27c10 0 15 -3 23 -11z" />
    <glyph glyph-name="quotedblright" unicode="&#x201d;" horiz-adv-x="276" 
d="M177 425c-7 115 -12 236 -12 352c0 16 8 23 24 23c9 0 37 -5 37 -19v-338c0 -12 -10 -31 -24 -31c-11 0 -16 3 -25 13zM61 461c-7 101 -11 207 -11 309c0 14 7 20 22 20c9 0 35 -4 35 -17v-296c0 -10 -10 -27 -23 -27c-10 0 -15 3 -23 11z" />
    <glyph glyph-name="quotedblbase" unicode="&#x201e;" horiz-adv-x="276" 
d="M177 -175c-7 115 -12 236 -12 352c0 16 8 23 24 23c9 0 37 -5 37 -19v-338c0 -12 -10 -31 -24 -31c-11 0 -16 3 -25 13zM61 -139c-7 101 -11 207 -11 309c0 14 7 20 22 20c9 0 35 -4 35 -17v-296c0 -10 -10 -27 -23 -27c-10 0 -15 3 -23 11z" />
    <glyph glyph-name="ellipsis" unicode="&#x2026;" horiz-adv-x="537" 
d="M50 56c0 13 22 30 34 30c27 0 45 -21 45 -49c0 -22 -21 -25 -40 -25c-25 0 -39 16 -39 44zM229 56c0 13 22 30 34 30c27 0 45 -21 45 -49c0 -22 -21 -25 -40 -25c-25 0 -39 16 -39 44zM408 56c0 13 22 30 34 30c27 0 45 -21 45 -49c0 -22 -21 -25 -40 -25
c-25 0 -39 16 -39 44z" />
    <glyph glyph-name="guilsinglleft" unicode="&#x2039;" horiz-adv-x="338" 
d="M61 323c-9 13 -15 30 -7 46l197 132c33 13 51 -26 22 -45l-171 -104l157 -117c27 -21 6 -57 -26 -43z" />
    <glyph glyph-name="guilsinglright" unicode="&#x203a;" horiz-adv-x="338" 
d="M277 323l-172 -131c-32 -14 -53 22 -26 43l157 117l-171 104c-29 19 -11 58 22 45l197 -132c8 -16 2 -33 -7 -46z" />
    <glyph glyph-name="Euro" unicode="&#x20ac;" horiz-adv-x="472" 
d="M86 348c-19 4 -28 12 -28 29c0 6 2 8 12 12c3 1 14 1 25 1c1 22 2 41 4 59v11l-31 -7h-2c-11 0 -16 17 -16 31c0 11 2 22 11 24c14 -1 29 -1 43 -1c16 108 67 263 189 263h7c40 -2 88 -23 88 -72c0 -10 -3 -22 -17 -22c-33 1 -38 41 -75 46c-1 0 -3 1 -6 1
c-54 0 -101 -96 -124 -214c36 2 73 5 110 5h74c14 0 16 -14 16 -29c0 -24 -24 -15 -35 -15l-173 -4c-3 -25 -6 -50 -7 -76c28 0 54 -2 63 -2h10c23 0 60 -1 60 -28c0 -10 -8 -15 -21 -15c-39 0 -76 2 -114 3c0 -136 39 -259 140 -263h5c72 0 44 93 104 93c14 0 24 -8 24 -22
c-1 -18 -6 -18 -15 -39c-23 -49 -58 -74 -112 -74h-9c-151 7 -188 172 -191 305h-9z" />
    </font>
</defs>
</svg>
